<svg xmlns="http://www.w3.org/2000/svg" width="18" height="17.182" viewBox="0 0 18 17.182">
  <g id="다각형_9" data-name="다각형 9" fill="none">
    <path d="M9,0l3.15,5.146L18,6.563l-3.9,4.6.465,6.022L9,14.877,3.438,17.182,3.9,11.16,0,6.563,5.85,5.146Z" stroke="none"/>
    <path d="M 9 1.915506362915039 L 6.487110137939453 6.020998954772949 L 1.812738418579102 7.152832984924316 L 4.931949615478516 10.82659912109375 L 4.560319900512695 15.63409519195557 L 9 13.79416847229004 L 13.43967247009277 15.63409519195557 L 13.06805992126465 10.82659912109375 L 16.1872615814209 7.152832984924316 L 11.51288986206055 6.020998954772949 L 9 1.915506362915039 M 9 -1.9073486328125e-06 L 12.14999961853027 5.146368980407715 L 18 6.562869071960449 L 14.09681034088135 11.15999889373779 L 14.56229972839355 17.18181991577148 L 9 14.87663841247559 L 3.437689781188965 17.18181991577148 L 3.903189659118652 11.15999889373779 L 0 6.562869071960449 L 5.850000381469727 5.146368980407715 L 9 -1.9073486328125e-06 Z" stroke="none" fill="#9e9e9e"/>
  </g>
</svg>
