<svg xmlns="http://www.w3.org/2000/svg" width="18" height="17.257" viewBox="0 0 18 17.257">
  <g id="XMLID_6_" transform="translate(0 -9.703)">
    <path id="XMLID_338_" d="M82.088,219.7h0l-5.464,1.774-.383,6.274,5.847-8.047Z" transform="translate(-72.883 -200.794)" fill="#91dc5a"/>
    <path id="XMLID_340_" d="M209.136,123.186l-6.082-1.574-3.378,4.647Z" transform="translate(-191.136 -106.903)" fill="#933ec5"/>
    <path id="XMLID_341_" d="M199.676,219.7h0Z" transform="translate(-190.677 -200.463)" fill="#64c37d"/>
    <path id="XMLID_348_" d="M82.088,219.7h0l-5.847,8.047,5.846-2.3h0Z" transform="translate(-72.883 -200.796)" fill="#64c37d"/>
    <path id="XMLID_350_" d="M0,154.823l3.995,4.847L9.459,157.9Z" transform="translate(0 -138.634)" fill="#ff9811"/>
    <path id="XMLID_351_" d="M199.674,219.7h0Z" transform="translate(-190.675 -200.462)" fill="#ff9811"/>
    <path id="XMLID_352_" d="M205.142,221.48l-5.466-1.777,5.847,8.052-.381-6.273Z" transform="translate(-190.882 -200.795)" fill="#00d7df"/>
    <path id="XMLID_439_" d="M131.764,19.651V9.7L128.387,15h0Z" transform="translate(-122.665)" fill="#ea348b"/>
    <path id="XMLID_334_" d="M199.676,19.651,203.054,15l-3.378-5.3v9.948Z" transform="translate(-190.777)" fill="#f7aed1"/>
    <path id="XMLID_440_" d="M6.083,121.571h0L0,123.146l9.459,3.073Z" transform="translate(0 -106.864)" fill="#ffda44"/>
    <path id="XMLID_441_" d="M199.643,219.7h0l0,5.75h0l5.847,2.3-5.847-8.052Z" transform="translate(-190.849 -200.795)" fill="#99eff2"/>
    <path id="XMLID_443_" d="M205.142,159.682l3.995-4.85-9.46,3.073Z" transform="translate(-191.136 -138.643)" fill="#7c84e8"/>
  </g>
</svg>
