<svg xmlns="http://www.w3.org/2000/svg" width="24" height="24" viewBox="0 0 24 24">
  <g id="그룹_1" data-name="그룹 1" transform="translate(-583 -427)">
    <rect id="사각형_1" data-name="사각형 1" width="24" height="24" transform="translate(583 427)" fill="rgba(255,255,255,0)"/>
    <path id="delete_FILL0_wght600_GRAD-25_opsz48" d="M9.6,22.965a1.843,1.843,0,0,1-1.847-1.847V7.782H7.461a.88.88,0,0,1-.648-.264.91.91,0,0,1-.264-.672.9.9,0,0,1,.911-.911h4.1a.921.921,0,0,1,.264-.66A.861.861,0,0,1,12.474,5h4.893a.889.889,0,0,1,.672.276.921.921,0,0,1,.264.66h4.1a.861.861,0,0,1,.648.276.921.921,0,0,1,.264.66.861.861,0,0,1-.276.648.893.893,0,0,1-.636.264h-.288V21.118a1.761,1.761,0,0,1-.552,1.307,1.792,1.792,0,0,1-1.3.54Zm0-15.182V21.118H20.269V7.782Zm2.494,10.6a.746.746,0,0,0,.24.564.806.806,0,0,0,.576.228.778.778,0,0,0,.552-.228.746.746,0,0,0,.24-.564V10.493a.819.819,0,0,0-.815-.815.746.746,0,0,0-.564.24.806.806,0,0,0-.228.576Zm4.053,0a.73.73,0,0,0,.252.564.819.819,0,0,0,.564.228.806.806,0,0,0,.576-.228.746.746,0,0,0,.24-.564V10.493a.815.815,0,0,0-1.631,0ZM9.6,7.782v0Z" transform="translate(580.067 425.018)" fill="#fff"/>
  </g>
</svg>
