<svg xmlns="http://www.w3.org/2000/svg" width="34" height="34" viewBox="0 0 34 34">
  <path id="qustion_yellow" d="M19,2A17,17,0,1,0,36,19,17.028,17.028,0,0,0,19,2Zm0,26.541a1.735,1.735,0,0,1,0-3.469,1.735,1.735,0,0,1,0,3.469Zm3.99-11.275a9.534,9.534,0,0,1-1.214,1.561c-.867,1.041-1.561,1.908-1.561,2.775a1.368,1.368,0,0,1-1.388,1.388A1.277,1.277,0,0,1,17.439,21.6c0-1.735,1.214-3.3,2.082-4.51A9.628,9.628,0,0,0,20.561,15.7a2.508,2.508,0,0,0,.347-1.214,2.109,2.109,0,0,0-2.082-2.082,2.239,2.239,0,0,0-2.082,2.082,1.368,1.368,0,0,1-1.388,1.388,1.1,1.1,0,0,1-1.214-1.214A4.849,4.849,0,0,1,19,9.806a4.743,4.743,0,0,1,4.857,4.857A5.161,5.161,0,0,1,22.99,17.265Z" transform="translate(-2 -2)" fill="#ffcf00"/>
</svg>
