<svg id="그룹_157" data-name="그룹 157" xmlns="http://www.w3.org/2000/svg" width="165.225" height="230" viewBox="0 0 165.225 230">
  <g id="그룹_156" data-name="그룹 156" transform="translate(0 0)">
    <g id="Layer_3" data-name="Layer 3">
      <path id="패스_44" data-name="패스 44" d="M647.206,940.894c-.082-2.584-.167-5.17-.283-7.754-.235-5.227-.6-10.453-1.334-15.637-1.229-8.677-4.462-16.4-6.723-24.776a96.643,96.643,0,0,1-2.137-10.087,115.641,115.641,0,0,1-1.348-19.1c.054-6.271.508-12.6,2.71-18.529,1.2-3.222,2.523-7.262,5.142-9.627.415-.374,1.15-.786,1.492-1.136,0,0,0-.006,0-.009.13-.1.256-.2.376-.31.09-.58.2-1.157.285-1.744.007-.044.013-.09.019-.133-1.353-.109-2.847.869-4.037,1.386-2.836,1.234-5.747,2.287-8.573,3.548-1.3.58-2.621,1.189-3.891,1.806-1.24.6-2.214,1.619-3.46,2.225-1.393.678-2.788,1.349-4.2,1.983-1.07.48-2.145.954-3.211,1.444a29.7,29.7,0,0,0,2.952,5.868c-.038.132-.076.265-.117.4-1.051,3.342-3.1,6.228-4.5,9.417-.343.783-.631,1.581-.915,2.374h0c.641.349.667,1.13.885,1.8,1.806,5.595-1.155,8.827-1.968,14.061-.653,4.192.915,7.982.742,12.074-.112,2.641-1.578,4.9-2.257,7.4a27.483,27.483,0,0,0-.676,3.4c-1.517,10.924-3.974,21.79-6.113,32.627-.512,2.6-.956,5.4-1.626,8.142l.006,0c.689,8.382.778,16.955.714,25.426h42c.184-3.786.323-7.575.334-11.365C647.508,950.969,647.368,945.977,647.206,940.894Zm-9.275-14.667a2.309,2.309,0,0,1,1.767-3.275,2.194,2.194,0,0,1,1.781.448c1.3,1.013.752,2.67-.155,3.745S638.41,927.3,637.931,926.227Zm4.873,25.3c-.9,1.066-2.914.152-3.393-.918a2.308,2.308,0,0,1,1.765-3.275,2.193,2.193,0,0,1,1.781.448C644.256,948.8,643.71,950.455,642.8,951.53Z" transform="translate(-570.001 -737.93)" fill="#ff7c52"/>
      <path id="패스_45" data-name="패스 45" d="M635.508,399.178a.7.7,0,0,1,.077,1.123,1.732,1.732,0,0,1-1.4.32c-.7-.1-1.426-.141-2.125-.176-.826-.041-1.655-.046-2.483-.074-.6-.021-1.66.092-2.143-.348-.613-.56-.089-1.107.557-1.241a7.366,7.366,0,0,1,1.783.028c.425.017.859.038,1.289.053.918.031,1.838.016,2.756.025A3.169,3.169,0,0,1,635.508,399.178Z" transform="translate(-589.773 -360.378)" fill="#fe0"/>
      <path id="패스_46" data-name="패스 46" d="M609.512,299.626c.782.049.724.908.248,1.3-.066.261-.476.333-.686.491-.315.235-2.036,1.568-2.3,1.854a4.936,4.936,0,0,1-.813.59c-.374.268-1.618,1.215-2.017.48a.745.745,0,0,1,.08-.7,2.96,2.96,0,0,1,1.176-.97,3.713,3.713,0,0,0,1.15-.867c.274-.342,2.023-1.555,2.357-1.824A1.216,1.216,0,0,1,609.512,299.626Z" transform="translate(-569.52 -274.145)" fill="#fe0"/>
      <path id="패스_47" data-name="패스 47" d="M604.781,472.5a.7.7,0,0,1-.736.852,1.732,1.732,0,0,1-1.224-.759c-.429-.558-.911-1.1-1.384-1.621-.558-.611-1.145-1.2-1.711-1.8-.412-.439-1.245-1.1-1.278-1.755-.043-.829.716-.849,1.268-.49a7.327,7.327,0,0,1,1.248,1.273c.291.314.585.632.879.946.63.668,1.294,1.3,1.941,1.957A3.191,3.191,0,0,1,604.781,472.5Z" transform="translate(-564.79 -419.636)" fill="#fe0"/>
      <path id="패스_48" data-name="패스 48" d="M566.386,406.31c.19,1.2-1.187,1.154-2.059,1.1a4.366,4.366,0,0,1,1.033-1.379C565.789,405.663,566.281,405.646,566.386,406.31Z" transform="translate(-535.103 -366.51)" fill="#ffbc3b"/>
      <path id="패스_51" data-name="패스 51" d="M518.021,417.032H518c-.1-1.424-.545-2.8-.762-4.217a27.835,27.835,0,0,0-1.054-5.362,7.936,7.936,0,0,0-.342-.8l.291-.016a3.792,3.792,0,0,0,1.015-.255,2.894,2.894,0,0,0,.941-.626,4.293,4.293,0,0,0,.782-.751l.064-.1a3.829,3.829,0,0,0,1.9,1.478,3.762,3.762,0,0,0,1.015.255l.289.016a7.6,7.6,0,0,0-.34.8,187.264,187.264,0,0,0-1.721,9.252c0,.12.018.241.02.361C519.405,417.071,518.706,417.052,518.021,417.032Z" transform="translate(-492.918 -365.846)" fill="#ffbc3b"/>
      <path id="패스_53" data-name="패스 53" d="M535.367,380.569a3.985,3.985,0,0,1-.475,2.105,4.292,4.292,0,0,1-.667-1.646c-.087-.476-.087-1.352.419-1.631S535.362,380.3,535.367,380.569Z" transform="translate(-508.873 -343.52)" fill="#ffbc3b"/>
      <path id="패스_54" data-name="패스 54" d="M532.482,253.226c.164.212-.031.58-.038.843-.008.394-.02,2.57.041,2.956a4.921,4.921,0,0,1-.036,1.005c-.02.46-.039,2.022-.865,1.884a.741.741,0,0,1-.5-.494,2.939,2.939,0,0,1-.039-1.524,3.755,3.755,0,0,0,.024-1.439c-.1-.427.023-2.554.017-2.981a1.218,1.218,0,0,1,.223-.854C531.83,252.037,532.469,252.612,532.482,253.226Z" transform="translate(-506.073 -233.037)" fill="#fe0"/>
      <path id="패스_55" data-name="패스 55" d="M532.475,498.253c-.005.018,0,.028-.015.046,0-.015,0-.031,0-.046Z" transform="translate(-507.372 -447.09)" fill="#8cc295"/>
      <path id="패스_58" data-name="패스 58" d="M500.9,406.034a4.367,4.367,0,0,1,1.033,1.379c-.872.051-2.25.092-2.059-1.1C499.98,405.646,500.471,405.663,500.9,406.034Z" transform="translate(-479.006 -366.51)" fill="#ffbc3b"/>
      <path id="패스_59" data-name="패스 59" d="M431.234,466.93c.553-.36,1.31-.34,1.269.49-.033.654-.865,1.317-1.278,1.755-.568.6-1.153,1.189-1.713,1.8-.471.517-.956,1.063-1.384,1.621a1.732,1.732,0,0,1-1.222.759.7.7,0,0,1-.737-.852,3.2,3.2,0,0,1,1-1.4c.647-.654,1.31-1.289,1.941-1.957.294-.314.588-.632.879-.946A7.31,7.31,0,0,1,431.234,466.93Z" transform="translate(-414.876 -419.636)" fill="#fe0"/>
      <path id="패스_60" data-name="패스 60" d="M408.525,307.969c.455.478.572,1.227-.25,1.337-.649.085-1.453-.611-1.959-.936-.7-.448-1.379-.916-2.082-1.355-.594-.371-1.218-.747-1.846-1.066a1.74,1.74,0,0,1-.97-1.064.7.7,0,0,1,.7-.879,3.183,3.183,0,0,1,1.555.726c.76.517,1.506,1.053,2.279,1.55.361.233.729.463,1.089.691A7.417,7.417,0,0,1,408.525,307.969Z" transform="translate(-393.333 -277.958)" fill="#fe0"/>
      <path id="패스_61" data-name="패스 61" d="M387.424,398.782c.647.135,1.171.682.557,1.241-.483.44-1.54.327-2.141.348-.828.028-1.657.033-2.485.074-.7.035-1.426.081-2.123.176a1.736,1.736,0,0,1-1.4-.32.7.7,0,0,1,.077-1.123,3.175,3.175,0,0,1,1.693-.291c.918-.008,1.838.007,2.756-.025.43-.015.862-.036,1.289-.053A7.353,7.353,0,0,1,387.424,398.782Z" transform="translate(-374.356 -360.378)" fill="#fe0"/>
      <path id="패스_62" data-name="패스 62" d="M928.23,753.063l0-.085c3.793-.125,8.223-2.331,11.483-4.869l.069.086c-.139,1.1-.073,2.3-.155,3.285a37.113,37.113,0,0,0-.115,5.866c-2.253.136-4.432.714-6.764.527a28.481,28.481,0,0,1-7.818-1.829,25.188,25.188,0,0,1-5.872-3.593,27.33,27.33,0,0,1-3.289-3.183c-.19-.2-.39-.466-.6-.736,1.238.695,2.5,1.355,3.781,2.026a24.463,24.463,0,0,0,4.97,1.837A18.793,18.793,0,0,0,928.23,753.063Z" transform="translate(-840.37 -664.573)" fill="#e39476"/>
      <path id="패스_63" data-name="패스 63" d="M864.476,1532.208c1.3,1.013.752,2.67-.155,3.745s-2.914.152-3.393-.918a2.309,2.309,0,0,1,1.767-3.275A2.194,2.194,0,0,1,864.476,1532.208Z" transform="translate(-792.999 -1346.738)" fill="#9e1919"/>
      <path id="패스_64" data-name="패스 64" d="M1142.2,967.6h-34.368c.048-5.266.117-10.57-.352-15.791a113.714,113.714,0,0,1-.513-13.208c.1-3.622-.19-7.294-.067-10.943.136-4.081,1.013-8.139,1.181-12.238a52.558,52.558,0,0,1,1.3-9c.742-3.428.7-6.96,1.632-10.379.948-3.453,1.952-6.885,2.637-10.421.624-3.216,1.007-6.46,1.666-9.661a60.17,60.17,0,0,0,.346-21.9c-.344-2.133-.493-4.254-1.022-6.363a21.482,21.482,0,0,0-6.138-11.014c-1.191-1.06-2.822-1.572-3.986-2.558-.108-.577-.235-1.15-.34-1.734-.009-.044-.016-.089-.023-.133,1.349-.152,2.873.778,4.079,1.257,2.873,1.143,5.817,2.1,8.681,3.275,1.318.539,2.657,1.105,3.946,1.682,1.259.563,2.264,1.548,3.529,2.114,1.413.633,2.829,1.26,4.265,1.848a72.61,72.61,0,0,1,9,4.12c3.8,2.2,7.364,4.4,10.386,7.668,2.824,3.051,5.071,7.078,7.023,10.724a84.951,84.951,0,0,1,5.259,12.877,24.71,24.71,0,0,1,1.077,3.194c.384,2.047.523,4.183.832,6.253q.526,3.51.959,7.036c.591,4.777,1.072,9.567,1.486,14.362.528,6.114.463,12.267,1.118,18.371.641,5.98,2.974,11.346,3.981,17.213.653,3.806-.108,7.624-.356,11.429-.134,2.05.621,4.031.6,6.071-.023,1.964-.55,3.883-.6,5.855Z" transform="translate(-1004.8 -738.095)" fill="#ff7c52"/>
      <path id="패스_65" data-name="패스 65" d="M524.357,654.25c-.206-.971-.331-1.949-.514-2.937-.193-1.044-.428-2.081-.663-3.116-.982-4.325-1.723-8.358-.359-12.692,1.225-3.891,3.349-7.459,4.279-11.449a31.528,31.528,0,0,0,.4-8.274c-.111-3.418.067-6.847.088-10.265.015-2.393-.266-5.871,2.107-7.323a1.608,1.608,0,0,1,1.8-.095c2.051.927,2.437,3.96,2.526,5.9.248,5.44.044,10.859.022,16.3,0,.295.054.477.066.746a6.743,6.743,0,0,1,2.212.27c3.173.956,5.329,3.775,7.277,6.322.442-1.86,1.475-4.111,3.419-4.766a2.387,2.387,0,0,1,1.685-.123,3.694,3.694,0,0,1,2.14,1.758c.92,1.88-.031,4.224-.445,6.114a17.9,17.9,0,0,0-.628,3.946c.006,1.482.253,2.949.289,4.43.029,1.2.023,2.416-.067,3.622a19.138,19.138,0,0,1-.787,4.329c-1.051,3.342-3.1,6.228-4.5,9.417-.343.783-.631,1.581-.915,2.374-.826,2.3-1.632,4.538-3.732,6.147-2.765,2.121-6.465,1.425-9.274-.224a14.256,14.256,0,0,1-3.99-3.486,4.5,4.5,0,0,1-.994-2.27c-.229-1.229-.825-2.406-1.175-3.6C524.518,654.955,524.431,654.6,524.357,654.25Z" transform="translate(-498.339 -533.857)" fill="#f5b49b"/>
      <path id="패스_66" data-name="패스 66" d="M966.422,606.957c.651,1.6-.764,3.406-1.822,4.5a7.744,7.744,0,0,1-6.609,2.523,8.387,8.387,0,0,1-3.806-1.312,11.4,11.4,0,0,1-2.945-2.67c-.619-.838-1.108-2.362-.413-3.3a2.9,2.9,0,0,1,2.6-.953c.853.088,1.729.1,2.584.162a20.528,20.528,0,0,0,2.4-.012c1.047-.048,2.1,0,3.142-.131a8.245,8.245,0,0,1,2.848-.308A2.589,2.589,0,0,1,966.422,606.957Z" transform="translate(-871.099 -540.345)" fill="#fff"/>
      <path id="패스_67" data-name="패스 67" d="M731.056,157.7c-.147-1.035-.264-2.073-.387-3.1a18.061,18.061,0,0,0-.578-3.375c-.7-2.2-2.06-4.111-2.807-6.291a8.658,8.658,0,0,1-.536-3.043c.018-1.181.174-2.355.276-3.532a39.659,39.659,0,0,1,1.041-5.825c.606-2.526,1.516-5.136,1.242-7.76-.032-.3-.072-.606-.109-.91a8.14,8.14,0,0,1,1.323-5.148,15.344,15.344,0,0,1,6.152-6.469c2.936-1.54,6.522-2.06,9.589-3.391a26.563,26.563,0,0,0,3.794-2.038c.495-.32.872-.731,1.393-1,.786-.407,1.618-.739,2.425-1.085a14.078,14.078,0,0,1,3.037-.924,21.809,21.809,0,0,1,9.677.515c3.027.869,6.17,2.721,6.919,6.015.193.847.826.767,1.6.767a9.753,9.753,0,0,1,6.735,1.11c2.943,1.612,3.938,4.411,5.522,7.141a59.623,59.623,0,0,0,5.1,6.644c2.191,2.791,3.86,5.944,3.317,9.6a27.8,27.8,0,0,0-.461,5.012c.053,1.739-.777,3.708-1.21,5.376a25.066,25.066,0,0,1-.807,3.268,17.414,17.414,0,0,0-1.061,7.589c.007.188.016.377.028.567a17.067,17.067,0,0,1-.058,2.077,5.328,5.328,0,0,1-.255,1.447c-.147.407-.489,1.034-.985,1.108-1.622.239-1.311-4.472-1.336-5.339-.082-2.863-.589-6.065-2.237-8.488a13.264,13.264,0,0,1-1.732-4.327,20.262,20.262,0,0,1-.491-4.852c0-2.6.191-5.225-1.2-7.589-1.273-2.161-3.888-3.116-6.275-3.294-.573-.044-.936-.007-1.5-.041a24.747,24.747,0,0,0-11.252,1.542,8.852,8.852,0,0,1-3.594.647c-3.146-.057-6.123-1.314-9.17-1.953a15.771,15.771,0,0,0-4.44-.286,7.763,7.763,0,0,0-4.452,1.21,7.4,7.4,0,0,0-2.437,3.609,14.189,14.189,0,0,0-.594,2.989c-.127,1.269.24,2.476.134,3.733a15.391,15.391,0,0,1-1.645,6.236c-.275.507-.463,1.048-.695,1.574a8.788,8.788,0,0,1-.81,1.256,17.571,17.571,0,0,0-1.74,2.916c-.981,2.4-.362,5.038-.327,7.541a4.5,4.5,0,0,1-.667,2.977c-.7.867-1.624.628-2.286-.152a5.538,5.538,0,0,1-.943-2.846C731.192,158.633,731.121,158.167,731.056,157.7Z" transform="translate(-676.424 -103.484)" fill="#000070"/>
      <path id="패스_68" data-name="패스 68" d="M1103.609,832.359c.008.044.015.089.023.133-.045-.028-.089-.022-.1-.123C1103.555,832.365,1103.583,832.362,1103.609,832.359Z" transform="translate(-1004.262 -737.895)" fill="#8cc295"/>
      <path id="패스_69" data-name="패스 69" d="M1077.651,477.938a3.662,3.662,0,0,1-.622,2.646,2.484,2.484,0,0,1-2.71.7,2.693,2.693,0,0,1-1.218-4.511,2.741,2.741,0,0,1,3.132-.825A3.234,3.234,0,0,1,1077.651,477.938Z" transform="translate(-977.105 -427.481)" fill="#2b1a0f"/>
      <path id="패스_70" data-name="패스 70" d="M875.871,1719.927c1.3,1.013.752,2.67-.153,3.745s-2.914.152-3.393-.919a2.308,2.308,0,0,1,1.765-3.275A2.193,2.193,0,0,1,875.871,1719.927Z" transform="translate(-802.915 -1510.072)" fill="#9e1919"/>
      <path id="패스_71" data-name="패스 71" d="M385.684,1038.2c1.806,5.594-1.155,8.827-1.968,14.061-.653,4.192.915,7.982.742,12.074-.112,2.641-1.578,4.9-2.257,7.4a27.484,27.484,0,0,0-.676,3.4c-1.517,10.924-3.974,21.79-6.113,32.627-.512,2.6-.956,5.4-1.626,8.142a24.473,24.473,0,0,1-4.225,9.579c-5.144,6.466-17.511,8.976-24.042,3.018-3.9-3.558-5.4-9.22-5.929-14.289-1.18-11.238,2.2-23.274,5.967-33.733,1.317-3.659,3.094-7.132,4.434-10.782a42.492,42.492,0,0,0,2.472-10.515,19.588,19.588,0,0,1,2.108-7.389c1.448-2.687,3.952-4.618,4.837-7.623,1.2-4.087.429-8.823,4.595-11.459a7.546,7.546,0,0,0,1.367-.807c.074.353.161.705.263,1.055.35,1.2.946,2.375,1.175,3.6a4.5,4.5,0,0,0,.994,2.271,14.257,14.257,0,0,0,3.99,3.486c2.809,1.648,6.509,2.345,9.274.224,2.1-1.609,2.905-3.849,3.732-6.147h0C385.44,1036.746,385.466,1037.527,385.684,1038.2Z" transform="translate(-339.35 -911.828)" fill="#ff7c52"/>
      <path id="패스_72" data-name="패스 72" d="M909.5,759.57c0-.092,0-.183.007-.273a52.983,52.983,0,0,0,.007-5.513c-.054-.918-.143-1.834-.279-2.742-.058-.385-.183-.769-.251-1.136-.063-.343.032-.872-.206-1.155l.169-.294q.328.19.661.378c.212.27.412.536.6.736a27.317,27.317,0,0,0,3.289,3.183,25.181,25.181,0,0,0,5.872,3.593,28.481,28.481,0,0,0,7.818,1.829c2.332.187,4.511-.391,6.764-.527q.035.5.1,1c.029.238.066.471.107.705-.026,0-.054.006-.08.01.015.1.058.095.1.123.105.584.232,1.158.34,1.734a10.152,10.152,0,0,1,.21,2.411,11.227,11.227,0,0,1-1.186,4.393,12.5,12.5,0,0,1-6.535,6.053c-.558.218-1.11.467-1.675.664a8.684,8.684,0,0,1-3.241.436,16.4,16.4,0,0,1-3.275-.55,12.921,12.921,0,0,1-4.67-2.024,12.309,12.309,0,0,1-4.654-6.72,5.923,5.923,0,0,1-.085-2.9,7.429,7.429,0,0,0,.123-1.467C909.529,760.869,909.484,760.212,909.5,759.57Z" transform="translate(-834.806 -664.893)" fill="#f5b49b"/>
      <path id="패스_73" data-name="패스 73" d="M1068.444,400.741a1.01,1.01,0,0,1-.751,1.584,4.545,4.545,0,0,1-2.115-.442c-.307-.108-.637-.235-.948-.311a5.351,5.351,0,0,0-1.153.015,9.386,9.386,0,0,0-3.155.729,1.173,1.173,0,0,1-.914-.041c-.958-.552-.209-1.488.368-2a3.763,3.763,0,0,1,1.267-.771,10.9,10.9,0,0,1,2.078-.619,6.905,6.905,0,0,1,1.8-.069A5.081,5.081,0,0,1,1068.444,400.741Z" transform="translate(-965.473 -360.422)" fill="#1e244a"/>
      <path id="패스_74" data-name="패스 74" d="M877.97,400.741a1.01,1.01,0,0,1-.75,1.584,4.54,4.54,0,0,1-2.114-.442c-.307-.108-.637-.235-.948-.311a5.366,5.366,0,0,0-1.155.015,9.393,9.393,0,0,0-3.155.729,1.169,1.169,0,0,1-.913-.041c-.958-.552-.209-1.488.368-2a3.752,3.752,0,0,1,1.267-.771,10.922,10.922,0,0,1,2.076-.619,6.912,6.912,0,0,1,1.8-.069A5.077,5.077,0,0,1,877.97,400.741Z" transform="translate(-799.743 -360.422)" fill="#1e244a"/>
      <path id="패스_75" data-name="패스 75" d="M890.121,477.938a3.664,3.664,0,0,1-.623,2.646,2.484,2.484,0,0,1-2.71.7,2.694,2.694,0,0,1-1.218-4.511,2.741,2.741,0,0,1,3.132-.825A3.236,3.236,0,0,1,890.121,477.938Z" transform="translate(-813.935 -427.481)" fill="#2b1a0f"/>
      <path id="패스_76" data-name="패스 76" d="M739.669,351.94q-.333-.188-.661-.378c-1.267-.727-2.511-1.5-3.73-2.364a29.7,29.7,0,0,1-6.746-6.022c-1.05-1.406-2.136-2.752-3.234-4.127-.977-1.223-1.607-2.681-2.553-3.924-1.006-1.326-2.139-1.536-3.536-2.327a11.654,11.654,0,0,1-3.716-3.246,8.3,8.3,0,0,1-1.028-1.5,12.816,12.816,0,0,1-.74-1.942,6.489,6.489,0,0,1,.169-4.132,3.406,3.406,0,0,1,2.72-2.009c1.551-.155,2.083.968,2.889,2.028.064.467.136.933.217,1.4a5.538,5.538,0,0,0,.943,2.846c.663.78,1.591,1.019,2.286.152a4.5,4.5,0,0,0,.667-2.977c-.035-2.5-.654-5.136.327-7.541a17.564,17.564,0,0,1,1.74-2.916,8.784,8.784,0,0,0,.81-1.256c.232-.526.42-1.067.695-1.574a15.389,15.389,0,0,0,1.645-6.236c.105-1.257-.261-2.464-.134-3.733a14.193,14.193,0,0,1,.594-2.989,7.4,7.4,0,0,1,2.437-3.609,7.763,7.763,0,0,1,4.452-1.21,15.773,15.773,0,0,1,4.44.286c3.047.639,6.024,1.9,9.17,1.953a8.851,8.851,0,0,0,3.594-.647A24.747,24.747,0,0,1,764.64,292.4c.561.034.924,0,1.5.041,2.387.178,5,1.133,6.275,3.294,1.393,2.364,1.2,4.989,1.2,7.589a20.262,20.262,0,0,0,.491,4.852,13.263,13.263,0,0,0,1.732,4.327c1.648,2.424,2.155,5.625,2.237,8.488.025.867-.286,5.579,1.336,5.339.5-.074.838-.7.985-1.108a5.329,5.329,0,0,0,.256-1.447,17.067,17.067,0,0,0,.058-2.077c-.012-.19-.02-.378-.028-.566l.076,0c1.375-2.057,4.339-.993,5.157.974a6.7,6.7,0,0,1,.174,4.265,13.3,13.3,0,0,1-.764,2,8.665,8.665,0,0,1-1.06,1.55,12.036,12.036,0,0,1-3.838,3.349c-1.083.615-2.228,1.11-3.337,1.673l-.079-.035a39.169,39.169,0,0,1-5.3,9.134,73.962,73.962,0,0,1-5.647,5.878,23.546,23.546,0,0,1-1.848,1.593c-3.26,2.537-7.69,4.744-11.483,4.869l0,.085a18.791,18.791,0,0,1-4.31-.667,24.457,24.457,0,0,1-4.97-1.837C742.169,353.295,740.908,352.635,739.669,351.94Zm27.422-42.258a1.01,1.01,0,0,0,.75-1.584,5.08,5.08,0,0,0-3.52-1.927,6.91,6.91,0,0,0-1.8.069,10.9,10.9,0,0,0-2.078.619,3.766,3.766,0,0,0-1.267.771c-.577.514-1.326,1.45-.368,2a1.173,1.173,0,0,0,.914.041,9.385,9.385,0,0,1,3.155-.729,5.354,5.354,0,0,1,1.153-.015c.311.076.641.2.948.311A4.546,4.546,0,0,0,767.091,309.682ZM764.794,321a3.663,3.663,0,0,0,.622-2.646A3.234,3.234,0,0,0,764,316.36a2.741,2.741,0,0,0-3.132.825,2.693,2.693,0,0,0,1.218,4.511A2.484,2.484,0,0,0,764.794,321Zm-6.424,18.047c1.058-1.089,2.473-2.892,1.822-4.5a2.589,2.589,0,0,0-2.018-1.51,8.248,8.248,0,0,0-2.849.308c-1.041.136-2.095.083-3.142.131a20.542,20.542,0,0,1-2.4.012c-.856-.061-1.732-.074-2.584-.162a2.9,2.9,0,0,0-2.6.954c-.695.94-.206,2.464.413,3.3a11.4,11.4,0,0,0,2.945,2.67,8.387,8.387,0,0,0,3.806,1.313A7.745,7.745,0,0,0,758.371,339.042Zm-16.023-29.36a1.01,1.01,0,0,0,.75-1.584,5.078,5.078,0,0,0-3.52-1.927,6.915,6.915,0,0,0-1.8.069,10.924,10.924,0,0,0-2.076.619,3.752,3.752,0,0,0-1.267.771c-.577.514-1.326,1.45-.368,2a1.169,1.169,0,0,0,.913.041,9.394,9.394,0,0,1,3.155-.729,5.368,5.368,0,0,1,1.155-.015c.311.076.641.2.948.311A4.54,4.54,0,0,0,742.347,309.682ZM740.433,321a3.664,3.664,0,0,0,.623-2.646,3.236,3.236,0,0,0-1.419-1.99,2.741,2.741,0,0,0-3.132.825,2.694,2.694,0,0,0,1.217,4.511A2.484,2.484,0,0,0,740.433,321Z" transform="translate(-664.87 -267.78)" fill="#f5b49b"/>
      <g id="그룹_183" data-name="그룹 183">
        <path id="패스_56" data-name="패스 56" d="M467.8,346.4l-.153.077-.038-.115a7.1,7.1,0,0,0-.724-1.48c-.75-1.151-2.005-1.683-3.028-2.522a11.819,11.819,0,0,1-4.155-8.4c-.266-5.174,3.682-10.065,8.988-10.185a11.3,11.3,0,0,1,6.8,1.831,10.516,10.516,0,0,1,3.723,12.16,11.264,11.264,0,0,1-1.659,3.045c-.759.992-1.885,1.595-2.66,2.539-.7.856-1.688,1.718-1.785,2.893l-.013.125-.071.028c-.586.053-1.184.072-1.787.076,0-.12-.02-.242-.02-.361a27.912,27.912,0,0,1,.665-3.89,27.719,27.719,0,0,1,1.056-5.362,7.562,7.562,0,0,1,.34-.8c.872.051,2.25.092,2.059-1.1-.105-.664-.6-.647-1.026-.276a4.368,4.368,0,0,0-1.033,1.379l-.289-.016a3.76,3.76,0,0,1-1.015-.255,3.829,3.829,0,0,1-1.9-1.478,3.986,3.986,0,0,0,.475-2.105c0-.269-.21-1.452-.723-1.171s-.506,1.154-.419,1.631a4.293,4.293,0,0,0,.667,1.646c-.021.034-.043.069-.064.1a4.288,4.288,0,0,1-.782.751,2.893,2.893,0,0,1-.941.626,3.789,3.789,0,0,1-1.015.255l-.291.016a4.367,4.367,0,0,0-1.033-1.379c-.429-.371-.92-.388-1.026.276-.191,1.2,1.187,1.154,2.059,1.1a7.922,7.922,0,0,1,.342.8,27.829,27.829,0,0,1,1.054,5.362c.217,1.416.663,2.793.762,4.217C468.69,346.419,468.242,346.4,467.8,346.4Z" transform="translate(-444.061 -295.152)" fill="#fff"/>
        <path id="패스_77" data-name="패스 77" d="M485.924,355.6A2.52,2.52,0,0,0,484.4,357c-.069.317.028.655-.056.968-.14.523-.706.784-1.111,1.143a2.321,2.321,0,0,0-.611,2.5c.26.681.848,1.24.924,1.964.065.614-.229,1.338.186,1.8.352.388.977.3,1.468.48.632.233,1.01.9,1.623,1.183.889.4,1.9-.138,2.878-.182a10.785,10.785,0,0,1,1.76.205,2.333,2.333,0,0,0,1.7-.32c.516-.392.7-1.074,1.089-1.6a7.813,7.813,0,0,1,1.424-1.265,2.409,2.409,0,0,0,1-1.568c.065-.862-.628-1.583-.876-2.411a9.282,9.282,0,0,1-.19-1.684c-.057-.527-.231-1.221-.778-1.428a8.652,8.652,0,0,0-.934-.2c-.978-.25-1.632-1.189-2.563-1.578a3.316,3.316,0,0,0-1.914-.129,11.186,11.186,0,0,1-1.812.518A4.109,4.109,0,0,0,485.924,355.6Z" transform="translate(-463.892 -322.157)" fill="#fff"/>
      </g>
      <path id="패스_78" data-name="패스 78" d="M1124.637,1270.507c-.252,4.712-4.466,8.122-6.555,12.353-1.825,3.7-1.984,7.963-2.107,12.083" transform="translate(-1015.091 -1119.299)" fill="none"/>
      <path id="패스_79" data-name="패스 79" d="M925.78,1522.3a27.348,27.348,0,0,1-.672-4.218c-.588-3.46-.974-6.951-1.283-10.447a39.26,39.26,0,0,0-.43-5.161,22.774,22.774,0,0,1-.461-3.862,85.356,85.356,0,0,0-3.3-19.026c.074.446.145.894.209,1.345.705,4.978,1.07,10,1.306,15.017q.015.31.029.62c.117,2.584.2,5.17.283,7.754.162,5.084.3,10.075.285,15.174-.012,3.79-.15,7.579-.334,11.365h5.534c-.085-1.139-.24-2.279-.4-3.406A29.822,29.822,0,0,0,925.78,1522.3Z" transform="translate(-844.253 -1301.358)" fill="#ededed"/>
      <path id="패스_80" data-name="패스 80" d="M888.1,866.669c-.344-2.133-.493-4.254-1.022-6.363a21.483,21.483,0,0,0-6.138-11.014c-1.191-1.06-2.822-1.573-3.986-2.558a10.155,10.155,0,0,1,.21,2.41,11.23,11.23,0,0,1-1.186,4.393,12.5,12.5,0,0,1-6.535,6.053c-.558.217-1.11.467-1.675.664a8.685,8.685,0,0,1-3.241.436,16.4,16.4,0,0,1-3.275-.55,12.921,12.921,0,0,1-4.67-2.024,12.309,12.309,0,0,1-4.654-6.72,5.921,5.921,0,0,1-.085-2.9,7.426,7.426,0,0,0,.123-1.467c-.342.35-1.078.762-1.492,1.136-2.619,2.365-3.946,6.4-5.142,9.627-2.2,5.928-2.656,12.258-2.71,18.529a115.641,115.641,0,0,0,1.347,19.1,96.658,96.658,0,0,0,2.137,10.087c2.144,7.942,5.159,15.3,6.515,23.431a85.337,85.337,0,0,1,3.3,19.026,22.786,22.786,0,0,0,.461,3.862,39.237,39.237,0,0,1,.43,5.161c.308,3.5.7,6.986,1.283,10.447a27.366,27.366,0,0,0,.672,4.218,29.807,29.807,0,0,1,.765,5.154c.157,1.127.312,2.267.4,3.406H880.27c.048-5.266.117-10.57-.352-15.791a113.726,113.726,0,0,1-.513-13.208c.1-3.622-.19-7.294-.067-10.943.136-4.081,1.013-8.139,1.181-12.238a52.551,52.551,0,0,1,1.3-9c.742-3.428.695-6.96,1.632-10.379.948-3.453,1.952-6.885,2.637-10.421.623-3.216,1.007-6.461,1.666-9.661A60.168,60.168,0,0,0,888.1,866.669Z" transform="translate(-777.242 -750.713)" fill="#fffbf2"/>
    </g>
    <g id="그룹_271" data-name="그룹 271">
      <g id="그룹_185" data-name="그룹 185">
        <path id="패스_49" data-name="패스 49" d="M524.909,507.041c0,.036-.123-.018-.19-.041-.128-.041-.263-.09-.386-.141a5.183,5.183,0,0,0-.808-.283c-1.417-.335-2.828-.842-4.214-1.284h-.04c0-.4.02-.8-.006-1.189-.016-.251-.11-.535-.12-.8l.021,0a21.1,21.1,0,0,0,2.788,1.074,16.227,16.227,0,0,1,2.741.9c.11.056.256.2.366.163h.047a9.86,9.86,0,0,1-.123,1.619Z" transform="translate(-495.79 -451.482)" fill="#dedede"/>
        <path id="패스_50" data-name="패스 50" d="M525.565,520.365c.067.023.19.077.19.041l.077.013c-.023.14-.051.279-.084.417a4.533,4.533,0,0,1-.379,1.209,3.276,3.276,0,0,1-.2.309l-.015-.01c-.374-.151-.757-.368-1.153-.5-1.235-.4-2.481-.946-3.677-1.453l-.13,0a8.773,8.773,0,0,0-.039-1.08,5.116,5.116,0,0,1-.041-.657h.039c1.386.442,2.8.949,4.214,1.284a5.183,5.183,0,0,1,.808.283C525.3,520.275,525.437,520.324,525.565,520.365Z" transform="translate(-496.636 -464.852)" fill="#dedede"/>
        <path id="패스_52" data-name="패스 52" d="M525.7,533.971l.015.01a3.072,3.072,0,0,1-.575.613,2.8,2.8,0,0,1-2.031.407,2.682,2.682,0,0,1-1.887-1.247,3.027,3.027,0,0,1-.434-1.11,4.152,4.152,0,0,1-.048-.623l.13,0c1.2.507,2.442,1.049,3.677,1.453C524.94,533.6,525.323,533.82,525.7,533.971Z" transform="translate(-497.176 -476.482)" fill="#dedede"/>
        <path id="패스_57" data-name="패스 57" d="M519.158,498.446l-.021,0a.725.725,0,0,1,.235-.616l.153-.077c.439.008.887.023,1.342.036,0,.015,0,.031,0,.046.018-.018.01-.028.015-.046.685.02,1.384.039,2.081.035.6,0,1.2-.023,1.787-.076l.071-.028c.269.173.282.567.282.852,0,.389-.021.774-.013,1.166.007.281.012.563.01.844h-.047c-.11.038-.256-.107-.366-.163a16.228,16.228,0,0,0-2.741-.9A21.092,21.092,0,0,1,519.158,498.446Z" transform="translate(-495.781 -446.629)" fill="#dedede"/>
      </g>
      <g id="Layer_2" data-name="Layer 2" transform="translate(20.44 10.874)">
        <g id="그룹_133" data-name="그룹 133" transform="translate(70.1 2.046)">
          <path id="패스_81" data-name="패스 81" d="M1036.709,213.173a.365.365,0,0,1-.26-.621c2.656-2.691,3.879-6.23,4.725-9.336a.365.365,0,1,1,.7.192c-1.552,5.7-3.353,8.08-4.91,9.657A.364.364,0,0,1,1036.709,213.173Z" transform="translate(-1036.345 -202.946)" fill="#000031"/>
        </g>
        <g id="그룹_134" data-name="그룹 134" transform="translate(75.964 8.613)">
          <path id="패스_82" data-name="패스 82" d="M1081.851,257.3a.365.365,0,0,1-.121-.71,15.632,15.632,0,0,0,5.175-3,.365.365,0,0,1,.482.549,16.36,16.36,0,0,1-5.416,3.14A.366.366,0,0,1,1081.851,257.3Z" transform="translate(-1081.486 -253.503)" fill="#000070"/>
        </g>
        <g id="그룹_135" data-name="그룹 135" transform="translate(53.149)">
          <path id="패스_83" data-name="패스 83" d="M912.276,196.074a.365.365,0,0,1-.356-.288c-.82-3.8-2.951-6.674-5.846-7.887a.365.365,0,0,1,.282-.673c3.118,1.306,5.406,4.37,6.277,8.406a.365.365,0,0,1-.357.442Z" transform="translate(-905.849 -187.197)" fill="#000029"/>
        </g>
        <g id="그룹_136" data-name="그룹 136" transform="translate(40.412 6.421)">
          <path id="패스_84" data-name="패스 84" d="M814.674,238.908a.363.363,0,0,1-.177-.046,10.027,10.027,0,0,0-6.282-1.43.365.365,0,0,1-.1-.723,10.736,10.736,0,0,1,6.738,1.516.365.365,0,0,1-.178.684Z" transform="translate(-807.799 -236.626)" fill="#000021"/>
        </g>
        <g id="그룹_137" data-name="그룹 137" transform="translate(64.539 35.641)">
          <path id="패스_85" data-name="패스 85" d="M996.535,476.434a3.035,3.035,0,0,1-1.212-.277,5.5,5.5,0,0,1-1.675-1.06.365.365,0,1,1,.508-.524,4.8,4.8,0,0,0,1.459.916,2.1,2.1,0,0,0,1.165.2,3.028,3.028,0,0,0,.8-.248c.346-.16,1.4-.645.706-2.912-.228-.748-.5-1.5-.757-2.227-.238-.664-.483-1.35-.7-2.038a5.266,5.266,0,0,1-.191-1.159c-.016-.179-.03-.348-.054-.521a15.6,15.6,0,0,1,.083-3.987.365.365,0,1,1,.725.086,14.968,14.968,0,0,0-.085,3.8c.027.191.043.378.059.559a4.637,4.637,0,0,0,.16,1c.212.674.455,1.354.69,2.011.263.735.535,1.495.768,2.26.724,2.377-.2,3.371-1.1,3.787a3.77,3.77,0,0,1-.99.307A2.3,2.3,0,0,1,996.535,476.434Z" transform="translate(-993.537 -462.272)" fill="#ab684d"/>
        </g>
        <g id="그룹_138" data-name="그룹 138" transform="translate(29.816 44.347)">
          <path id="패스_86" data-name="패스 86" d="M731.707,537.105a.365.365,0,0,1-.326-.2,2.525,2.525,0,0,0-.927-.876,2.809,2.809,0,0,1-1.177-1.228,2.293,2.293,0,0,1,.071-1.627,3.979,3.979,0,0,0,.153-.6,1.2,1.2,0,0,0-.117-.591c-.039-.106-.079-.216-.112-.338a1.408,1.408,0,0,0-.429-.809,2.211,2.211,0,0,0-1.463-.663.712.712,0,0,0-.49.331.365.365,0,1,1-.6-.421,1.421,1.421,0,0,1,.988-.633,2.781,2.781,0,0,1,2.024.822,2.118,2.118,0,0,1,.67,1.181c.025.093.059.184.094.281a1.851,1.851,0,0,1,.153.947,4.614,4.614,0,0,1-.178.708,1.628,1.628,0,0,0-.091,1.14,2.16,2.16,0,0,0,.907.894,3.157,3.157,0,0,1,1.171,1.153.365.365,0,0,1-.326.529Z" transform="translate(-726.227 -529.439)" fill="#ab684d"/>
        </g>
        <g id="그룹_139" data-name="그룹 139" transform="translate(93.912 44.556)">
          <path id="패스_87" data-name="패스 87" d="M1220.018,538.946a.365.365,0,0,1-.326-.529,3.252,3.252,0,0,1,1.205-1.186,2.24,2.24,0,0,0,.942-.928,1.714,1.714,0,0,0-.093-1.185,4.736,4.736,0,0,1-.184-.729,1.9,1.9,0,0,1,.157-.971c.036-.1.071-.195.1-.291a2.176,2.176,0,0,1,.688-1.213,2.857,2.857,0,0,1,2.081-.846,1.455,1.455,0,0,1,1.012.649.365.365,0,1,1-.6.421.747.747,0,0,0-.514-.347,2.3,2.3,0,0,0-1.52.687,1.464,1.464,0,0,0-.447.841c-.034.125-.075.239-.116.348a1.253,1.253,0,0,0-.121.616,4.154,4.154,0,0,0,.159.618,2.359,2.359,0,0,1,.074,1.672,2.851,2.851,0,0,1-1.21,1.262,2.615,2.615,0,0,0-.961.908A.365.365,0,0,1,1220.018,538.946Z" transform="translate(-1219.654 -531.055)" fill="#ab684d"/>
        </g>
        <g id="그룹_140" data-name="그룹 140" transform="translate(23.012 82.66)">
          <path id="패스_88" data-name="패스 88" d="M674.435,837.234a.579.579,0,0,1-.2-.038.126.126,0,0,0-.043-.01.365.365,0,1,1,.057-.728.812.812,0,0,1,.2.04.369.369,0,0,1,.106-.008c.969.073,1.813-1.136,2.117-1.912a8.8,8.8,0,0,0,.421-4.442,8.181,8.181,0,0,0-1.205-3.838q-.214-.277-.431-.561a.365.365,0,0,1,.58-.444q.216.282.429.558a8.748,8.748,0,0,1,1.351,4.186,9.515,9.515,0,0,1-.465,4.808,4.763,4.763,0,0,1-1.033,1.582,2.389,2.389,0,0,1-1.76.794A.651.651,0,0,1,674.435,837.234Z" transform="translate(-673.853 -825.151)" fill="#ab684d"/>
        </g>
        <g id="그룹_141" data-name="그룹 141" transform="translate(10.579 75.999)">
          <path id="패스_89" data-name="패스 89" d="M578.5,775.933a.365.365,0,0,1-.22-.657,8.278,8.278,0,0,1,4.211-1.6.365.365,0,0,1,.063.727,7.537,7.537,0,0,0-3.835,1.454A.364.364,0,0,1,578.5,775.933Z" transform="translate(-578.138 -773.677)" fill="#ab684d"/>
        </g>
        <g id="그룹_142" data-name="그룹 142" transform="translate(11.989 84.578)">
          <path id="패스_90" data-name="패스 90" d="M595.382,855.689a1.7,1.7,0,0,1-1.291-.488.931.931,0,0,0-.172-.092.8.8,0,0,1-.561-.627.365.365,0,0,1,.72-.11,1.515,1.515,0,0,0,.148.075,1.211,1.211,0,0,1,.4.256c.548.586,2.091.054,2.766-.4a6.627,6.627,0,0,0,2.057-7.686,5.184,5.184,0,0,0-.688-1.164c-.105-.148-.214-.3-.314-.453-1.586-2.417-3.153-3.8-4.658-4.125a11.315,11.315,0,0,0-4.352.124.365.365,0,1,1-.148-.715,12.044,12.044,0,0,1,4.652-.123c1.723.366,3.4,1.818,5.116,4.438.092.141.193.282.3.431a5.711,5.711,0,0,1,.78,1.34c.981,2.729.495,6.65-2.339,8.54A4.908,4.908,0,0,1,595.382,855.689Z" transform="translate(-588.996 -839.986)" fill="#ab684d"/>
        </g>
        <g id="그룹_143" data-name="그룹 143" transform="translate(9.29 91.541)">
          <path id="패스_91" data-name="패스 91" d="M572.4,906.3a2.188,2.188,0,0,1-1.751-.911,3.21,3.21,0,0,1-.658-1.628,4.149,4.149,0,0,1,.024-.682,1.871,1.871,0,0,0-.057-.923,4.582,4.582,0,0,0-1.413-1.54l-.191-.155a.365.365,0,0,1,.462-.565l.188.153a5.2,5.2,0,0,1,1.617,1.8,2.46,2.46,0,0,1,.121,1.3,3.591,3.591,0,0,0-.023.563,2.491,2.491,0,0,0,.51,1.238,1.471,1.471,0,0,0,2.123.311,5.4,5.4,0,0,0,1.939-4.213,7.153,7.153,0,0,0-.34-2.381,6.159,6.159,0,0,0-1.676-2.3l-.166-.169a7.371,7.371,0,0,0-2.668-1.788.365.365,0,1,1,.256-.684,8.091,8.091,0,0,1,2.933,1.96l.165.167a6.787,6.787,0,0,1,1.855,2.6,7.878,7.878,0,0,1,.372,2.625,5.951,5.951,0,0,1-2.264,4.791A2.447,2.447,0,0,1,572.4,906.3Z" transform="translate(-568.219 -893.698)" fill="#ab684d"/>
        </g>
        <g id="그룹_144" data-name="그룹 144" transform="translate(17.49 98.545)">
          <path id="패스_92" data-name="패스 92" d="M631.7,954.036a.365.365,0,0,1-.349-.471,13.2,13.2,0,0,1,2.059-4.267c.159-.212.3-.408.444-.6.207-.282.4-.548.635-.852a.365.365,0,1,1,.58.443c-.228.3-.422.562-.626.841-.143.194-.288.392-.448.606a12.514,12.514,0,0,0-1.945,4.041A.365.365,0,0,1,631.7,954.036Z" transform="translate(-631.339 -947.703)" fill="#ab684d"/>
        </g>
        <g id="그룹_145" data-name="그룹 145" transform="translate(13.697 113.329)">
          <path id="패스_93" data-name="패스 93" d="M602.506,1143.655a.365.365,0,0,1-.355-.45c.428-1.795.765-3.62,1.091-5.385.158-.855.307-1.663.466-2.469.529-2.681,1.087-5.41,1.626-8.048,1.643-8.036,3.342-16.347,4.483-24.557a27.476,27.476,0,0,1,.685-3.446,24.882,24.882,0,0,1,.979-2.737,13.833,13.833,0,0,0,1.265-4.578,27.465,27.465,0,0,0-.44-5.209,22.493,22.493,0,0,1-.3-6.906,28.337,28.337,0,0,1,1.3-4.832c.988-2.932,1.841-5.465.68-9.061-.055-.169-.1-.339-.138-.5-.12-.484-.224-.9-.575-1.093a.365.365,0,1,1,.349-.641,2.147,2.147,0,0,1,.934,1.558c.04.16.077.311.124.456,1.236,3.826.3,6.591-.682,9.519a27.751,27.751,0,0,0-1.273,4.711,21.931,21.931,0,0,0,.3,6.686,28.011,28.011,0,0,1,.447,5.348,14.591,14.591,0,0,1-1.317,4.819,24.369,24.369,0,0,0-.952,2.656,26.782,26.782,0,0,0-.667,3.355c-1.144,8.234-2.846,16.556-4.491,24.6-.539,2.637-1.1,5.365-1.625,8.043-.158.8-.307,1.607-.464,2.46-.328,1.774-.667,3.609-1.1,5.422A.365.365,0,0,1,602.506,1143.655Z" transform="translate(-602.141 -1063.693)" fill="#cc4343"/>
        </g>
        <g id="그룹_146" data-name="그룹 146" transform="translate(3.993 126.991)">
          <path id="패스_94" data-name="패스 94" d="M536.851,1178.754a.364.364,0,0,1-.259-.107,104.572,104.572,0,0,1-9.078-10.774.365.365,0,1,1,.581-.442,103.941,103.941,0,0,0,9.014,10.7.365.365,0,0,1-.258.622Z" transform="translate(-527.44 -1167.287)" fill="#cc4343"/>
        </g>
        <g id="그룹_147" data-name="그룹 147" transform="translate(1.682 145.007)">
          <path id="패스_95" data-name="패스 95" d="M515.464,1307.89a18.068,18.068,0,0,1-5.563-.977.365.365,0,1,1,.224-.695,14.823,14.823,0,0,0,8.118.625.365.365,0,0,1,.165.712A12.923,12.923,0,0,1,515.464,1307.89Z" transform="translate(-509.648 -1306.201)" fill="#cc4343"/>
        </g>
        <g id="그룹_148" data-name="그룹 148" transform="translate(112.07 117.526)">
          <path id="패스_96" data-name="패스 96" d="M1364.324,1197.6h0a.365.365,0,0,1-.362-.368c.023-2.508-.2-5.1-.411-7.6-.185-2.174-.376-4.423-.407-6.606-.057-4.022-.26-8.113-.457-12.068-.071-1.425-.144-2.9-.21-4.347-.387-8.578-.973-16.736-1.792-24.941-.862-8.649-1.593-17.109-1.07-25.531a79.87,79.87,0,0,1,4.1-19.885.365.365,0,1,1,.694.227,79.147,79.147,0,0,0-4.069,19.7c-.52,8.368.209,16.8,1.068,25.414.82,8.218,1.407,16.39,1.794,24.981.065,1.447.139,2.92.21,4.344.2,3.962.4,8.059.458,12.094.031,2.158.221,4.393.4,6.555.215,2.521.437,5.127.413,7.669A.365.365,0,0,1,1364.324,1197.6Z" transform="translate(-1359.436 -1095.997)" fill="#cc4343"/>
        </g>
        <g id="그룹_149" data-name="그룹 149" transform="translate(127.738 194.503)">
          <path id="패스_97" data-name="패스 97" d="M1480.416,1699.106a.365.365,0,0,1-.235-.644c3.867-3.259,6.576-6.511,8.052-9.667a.365.365,0,0,1,.661.309c-1.521,3.252-4.295,6.589-8.243,9.916A.364.364,0,0,1,1480.416,1699.106Z" transform="translate(-1480.051 -1688.584)" fill="#cc4343"/>
        </g>
        <g id="그룹_184" data-name="그룹 184">
          <g id="그룹_150" data-name="그룹 150" transform="translate(2.841 44.274)">
            <path id="패스_98" data-name="패스 98" d="M523.81,531.634a.409.409,0,0,1-.153-.03c-.161-.065-.32-.14-.475-.213a5.9,5.9,0,0,0-.652-.276c-1.141-.375-2.285-.86-3.39-1.33l-.319-.136a.411.411,0,0,1,.32-.756l.32.136c1.09.463,2.217.942,3.325,1.305a6.553,6.553,0,0,1,.745.313c.151.071.293.138.433.194a.411.411,0,0,1-.154.792Z" transform="translate(-518.57 -528.862)" fill="#a19086"/>
          </g>
          <g id="그룹_151" data-name="그룹 151" transform="translate(2.67 42.542)">
            <path id="패스_99" data-name="패스 99" d="M523.256,518.073a.8.8,0,0,1-.275-.06l-.034-.012c-.159-.053-.294-.1-.413-.151l-.093-.038a4,4,0,0,0-.654-.226c-1.085-.256-2.169-.613-3.217-.958-.344-.113-.686-.226-1.027-.335a.411.411,0,0,1,.25-.782c.343.11.689.223,1.035.337,1.032.34,2.1.691,3.148.938a4.789,4.789,0,0,1,.777.266l.091.037c.1.042.22.085.362.132l.035.012a.412.412,0,0,1,.412.275.422.422,0,0,1-.1.443A.408.408,0,0,1,523.256,518.073Zm-.379-.3h0Z" transform="translate(-517.257 -515.492)" fill="#a19086"/>
          </g>
          <path id="패스_100" data-name="패스 100" d="M524.355,504.212a.83.83,0,0,1-.455-.175.683.683,0,0,0-.059-.038,9.876,9.876,0,0,0-1.91-.66c-.25-.068-.508-.138-.763-.215-.179-.054-1.84-.617-2.545-.925a.411.411,0,0,1,.328-.753c.664.29,2.287.841,2.454.891.245.074.5.142.741.209a10.656,10.656,0,0,1,2.067.72,1.369,1.369,0,0,1,.146.089l.042.028a.411.411,0,0,1,.125.8A.524.524,0,0,1,524.355,504.212Z" transform="translate(-515.56 -460.595)" fill="#a19086"/>
        </g>
        <g id="그룹_153" data-name="그룹 153" transform="translate(0 24.97)">
          <path id="패스_101" data-name="패스 101" d="M503.424,395.36h0a.411.411,0,0,1-.408-.413,12.114,12.114,0,0,1,.39-2.565c.108-.478.21-.93.28-1.383.055-.362.106-.728.157-1.1a20.966,20.966,0,0,1,.919-4.344q.056-.154.115-.3a5.545,5.545,0,0,1-.83-.241,4.208,4.208,0,0,1-1.772-1.2c-.118.116-.243.22-.36.317-.07.058-.139.115-.2.174a3.3,3.3,0,0,1-1.08.707,5.542,5.542,0,0,1-.83.241q.059.145.115.3a20.969,20.969,0,0,1,.919,4.344c.051.368.1.735.157,1.1.084.553.208,1.116.328,1.66a20.522,20.522,0,0,1,.406,2.242.411.411,0,1,1-.816.086,19.874,19.874,0,0,0-.392-2.152c-.123-.557-.249-1.133-.338-1.712-.056-.366-.107-.736-.159-1.108a20.352,20.352,0,0,0-.876-4.175q-.1-.274-.208-.515a2.5,2.5,0,0,1-1.939-.5,1.253,1.253,0,0,1-.272-1.089.959.959,0,0,1,.588-.829,1.132,1.132,0,0,1,1.113.306,4.552,4.552,0,0,1,1.005,1.266h.029a3.509,3.509,0,0,0,.9-.232,2.56,2.56,0,0,0,.8-.544c.073-.065.149-.129.227-.193a3.537,3.537,0,0,0,.4-.362,4.761,4.761,0,0,1-.575-1.563,1.938,1.938,0,0,1,.626-2.064.682.682,0,0,1,.684,0c.587.339.646,1.514.646,1.526a4.622,4.622,0,0,1-.4,2.083,3.4,3.4,0,0,0,1.555,1.12,3.508,3.508,0,0,0,.9.232h.029a4.551,4.551,0,0,1,1-1.266,1.132,1.132,0,0,1,1.113-.306.959.959,0,0,1,.588.829,1.252,1.252,0,0,1-.273,1.089,2.493,2.493,0,0,1-1.939.5q-.108.242-.208.515a20.355,20.355,0,0,0-.876,4.175c-.052.372-.1.743-.159,1.108-.074.482-.184.969-.29,1.44a11.523,11.523,0,0,0-.37,2.39A.41.41,0,0,1,503.424,395.36Zm3.647-11.69a.625.625,0,0,0-.286.161,3.483,3.483,0,0,0-.6.676,1.341,1.341,0,0,0,.881-.236c.029-.031.115-.127.07-.408a.36.36,0,0,0-.067-.192Zm-9.481,0a.54.54,0,0,0-.058.187c-.045.282.042.377.07.408a1.341,1.341,0,0,0,.881.236,3.484,3.484,0,0,0-.6-.676A.524.524,0,0,0,497.59,383.675Zm4.564-3.378a1.612,1.612,0,0,0-.139,1.134,4.064,4.064,0,0,0,.213.754,4.408,4.408,0,0,0,.114-1.13A2.268,2.268,0,0,0,502.154,380.3Z" transform="translate(-496.699 -379.422)" fill="#a84216"/>
        </g>
        <g id="그룹_154" data-name="그룹 154" transform="translate(43.491 148.046)">
          <path id="패스_102" data-name="패스 102" d="M837.9,1351.542a.365.365,0,0,1-.361-.312,63.77,63.77,0,0,0-2.7-10.588c-.352-1.068-.777-2.167-1.189-3.229a33,33,0,0,1-2.147-7.066.365.365,0,0,1,.723-.1,32.483,32.483,0,0,0,2.106,6.906c.415,1.071.843,2.179,1.2,3.264a64.451,64.451,0,0,1,2.726,10.71.365.365,0,0,1-.308.414A.4.4,0,0,1,837.9,1351.542Z" transform="translate(-831.499 -1329.93)" fill="#cc4343"/>
        </g>
        <g id="그룹_155" data-name="그룹 155" transform="translate(118.049 108.175)">
          <path id="패스_103" data-name="패스 103" d="M1405.833,1029.456a.365.365,0,0,1-.338-.5,26.011,26.011,0,0,1,2.248-4.056c.551-.867,1.12-1.763,1.6-2.676a.365.365,0,0,1,.648.337c-.49.941-1.068,1.85-1.627,2.73a25.474,25.474,0,0,0-2.189,3.941A.365.365,0,0,1,1405.833,1029.456Z" transform="translate(-1405.468 -1022.024)" fill="#cc4343"/>
        </g>
      </g>
    </g>
  </g>
</svg>
