<svg xmlns="http://www.w3.org/2000/svg" xmlns:xlink="http://www.w3.org/1999/xlink" width="235" height="34" viewBox="0 0 235 34">
  <defs>
    <clipPath id="clip-path">
      <path id="패스_277" data-name="패스 277" d="M10,0H46.29L24,34H0V10A10,10,0,0,1,10,0Z" transform="translate(29 492)" fill="#ea348b"/>
    </clipPath>
  </defs>
  <g id="그룹_416" data-name="그룹 416" transform="translate(1565 -1800)">
    <path id="사각형_328" data-name="사각형 328" d="M10,0H225a10,10,0,0,1,10,10V34a0,0,0,0,1,0,0H0a0,0,0,0,1,0,0V10A10,10,0,0,1,10,0Z" transform="translate(-1565 1800)" fill="#1a1a1a"/>
    <path id="패스_274" data-name="패스 274" d="M10,0H46.29L24,34H0V10A10,10,0,0,1,10,0Z" transform="translate(-1565 1800)" fill="#ea348b"/>
    <g id="마스크_그룹_21" data-name="마스크 그룹 21" transform="translate(-1594 1308)" clip-path="url(#clip-path)">
      <g id="store-2-fill" transform="translate(33.357 496.595)">
        <path id="패스_275" data-name="패스 275" d="M0,0H33V33H0Z" fill="none"/>
        <path id="패스_276" data-name="패스 276" d="M29.22,25.513v2.612H2.344V25.513H3.688V16.685A5.831,5.831,0,0,1,1,11.8a5.711,5.711,0,0,1,.851-3.008L5.495,2.653A1.351,1.351,0,0,1,6.659,2H24.906a1.351,1.351,0,0,1,1.164.653L29.7,8.769a5.774,5.774,0,0,1-1.825,7.916v8.828ZM7.435,4.613l-3.269,5.5a3.228,3.228,0,0,0,1.621,4.15,3.412,3.412,0,0,0,4.381-1.256,1.358,1.358,0,0,1,2.494,0,3.4,3.4,0,0,0,6.241,0,1.358,1.358,0,0,1,2.494,0,3.352,3.352,0,0,0,2.826,2.025,3.39,3.39,0,0,0,3.139-1.528,3.188,3.188,0,0,0,.025-3.412L24.127,4.613H7.437Z" transform="translate(0.719 1.438)" fill="#ffd6ea"/>
      </g>
    </g>
  </g>
</svg>
