<svg xmlns="http://www.w3.org/2000/svg" width="24" height="24" viewBox="0 0 24 24">
  <g id="그룹_315" data-name="그룹 315" transform="translate(-79 -145)">
    <circle id="타원_24" data-name="타원 24" cx="12" cy="12" r="12" transform="translate(79 145)" fill="#fff"/>
    <g id="camera-add-svgrepo-com" transform="translate(77 142)">
      <path id="패스_237" data-name="패스 237" d="M12.05,7a1.769,1.769,0,0,0-1.549.919l-.536.973H8.4A2.407,2.407,0,0,0,6,11.31v7.148a2.407,2.407,0,0,0,2.4,2.418h4.688a5.459,5.459,0,0,1-.315-1.051H8.4a1.361,1.361,0,0,1-1.355-1.367V11.31A1.361,1.361,0,0,1,8.4,9.943h2.182l.834-1.514a.729.729,0,0,1,.638-.378h2.905a.729.729,0,0,1,.638.378l.834,1.514h2.182a1.361,1.361,0,0,1,1.355,1.367v2.334a5.382,5.382,0,0,1,1.042.523V11.31a2.407,2.407,0,0,0-2.4-2.418H17.04L16.5,7.919A1.769,1.769,0,0,0,14.956,7Z" transform="translate(0 0)" fill="#212121"/>
      <path id="패스_238" data-name="패스 238" d="M19.272,17a3.277,3.277,0,0,1,3.1,2.255,5.244,5.244,0,0,0-.958.367,2.254,2.254,0,1,0-2.618,2.91,5.382,5.382,0,0,0-.27,1A3.312,3.312,0,0,1,19.272,17Z" transform="translate(-5.795 -5.919)" fill="#212121"/>
      <path id="패스_239" data-name="패스 239" d="M33.249,28.682A4.625,4.625,0,1,1,28.625,24,4.654,4.654,0,0,1,33.249,28.682Zm-4.2-2.554a.42.42,0,1,0-.841,0v2.128H26.1a.426.426,0,0,0,0,.851h2.1v2.128a.42.42,0,1,0,.841,0V29.108h2.1a.426.426,0,0,0,0-.851h-2.1Z" transform="translate(-10.607 -10.096)" fill="#4f93ff"/>
    </g>
  </g>
</svg>
