<svg xmlns="http://www.w3.org/2000/svg" width="80" height="80" viewBox="0 0 80 80">
  <g id="그룹_809" data-name="그룹 809" transform="translate(707 -2908)">
    <path id="교차_19" data-name="교차 19" d="M-1641,146a4,4,0,0,1-4-4V70a4,4,0,0,1,4-4h72a4,4,0,0,1,4,4v72a4,4,0,0,1-4,4Z" transform="translate(938 2842)" opacity="0.8"/>
    <g id="checked-svgrepo-com" transform="translate(-689 2919)">
      <g id="그룹_268" data-name="그룹 268" transform="translate(0 -2)">
        <g id="그룹_267" data-name="그룹 267">
          <path id="패스_175" data-name="패스 175" d="M37.556,6.444A22,22,0,1,0,6.444,37.556,22,22,0,1,0,37.556,6.444ZM22,42.2A20.2,20.2,0,1,1,42.2,22,20.227,20.227,0,0,1,22,42.2Z" transform="translate(0 0)" fill="red"/>
          <path id="패스_176" data-name="패스 176" d="M77.334,56.761a.873.873,0,1,0-1.722.285,16.172,16.172,0,1,1-4.9-9.146A.873.873,0,0,0,71.9,46.627a17.841,17.841,0,1,0,5.434,10.134Z" transform="translate(-37.685 -37.685)" fill="red"/>
          <path id="패스_177" data-name="패스 177" d="M127.069,159.7l-6.847-7.275a.928.928,0,0,0-1.368,0l-2.736,2.907a1.074,1.074,0,0,0,0,1.454l8.9,9.456a2.782,2.782,0,0,0,4.1,0l17.152-18.226a1.074,1.074,0,0,0,0-1.453l-2.736-2.907a.928.928,0,0,0-1.368,0Zm15.785-13.865,1.368,1.453-16.469,17.5a.927.927,0,0,1-1.368,0l-8.215-8.729,1.368-1.453,6.847,7.275a.928.928,0,0,0,1.368,0Z" transform="translate(-108.88 -132.629)" fill="red"/>
        </g>
      </g>
    </g>
    <path id="패스_683" data-name="패스 683" d="M-15.66-3.012c-2.215,0-3.586.744-3.586,2.016,0,1.289,1.371,2.033,3.586,2.039,2.2-.006,3.545-.75,3.551-2.039C-12.116-2.268-13.463-3.012-15.66-3.012Zm-4.547-.926h5.051V-8.883h-1.289v1.43h-2.473v-1.43h-1.289Zm1.289-1.031V-6.434h2.473v1.465ZM-17.946-1c0-.656.832-.99,2.285-1s2.262.34,2.262,1S-14.213.018-15.66.012-17.946-.34-17.946-1Zm4.43-2.273h1.3V-5.93h1.477V-7.02h-1.477V-9.551h-1.3Zm13.1-.984h-9.68v1.043h4.3v1.945H-4.5V-3.211h4.09ZM-8.919.832h7.441V-.223H-7.619V-2.238h-1.3Zm.059-6.07h7.207V-9.07H-8.861ZM-7.6-6.258V-8.051h4.652v1.793ZM3.611-9.094c-1.553,0-2.654.861-2.648,2.133A2.153,2.153,0,0,0,2.978-4.893v.908c-.937.029-1.828.035-2.59.035L.529-2.906A37.7,37.7,0,0,0,6.986-3.34L6.88-4.289c-.82.117-1.705.193-2.59.246V-4.9a2.18,2.18,0,0,0,1.98-2.062C6.259-8.232,5.158-9.094,3.611-9.094ZM1.841.82H9.177V-.234H3.142V-2.168h-1.3Zm.34-7.781C2.169-7.676,2.767-8.1,3.611-8.1s1.424.422,1.43,1.137c-.006.7-.58,1.131-1.43,1.137S2.169-6.264,2.181-6.961ZM7.5-1.453H8.8V-5.039h1.43V-6.117H8.8V-9.539H7.5Zm13.081.188H18.133V-3.012H19.68V-4.066H13.352V-5.426h6.082v-3.4H12.028V-7.77h6.117v1.3H12.051v3.457h1.418v1.746H10.9V-.187h9.68Zm-5.848,0V-3.012h2.121v1.746Z" transform="translate(-666.793 2976)" fill="red"/>
  </g>
</svg>
