<svg xmlns="http://www.w3.org/2000/svg" width="58.344" height="33.175" viewBox="0 0 58.344 33.175">
  <g id="그룹_775" data-name="그룹 775" transform="translate(-2060 388.587)">
    <g id="그룹_775-2" data-name="그룹 775" transform="translate(-167.344 -247.587)">
      <path id="패스_245" data-name="패스 245" d="M0,0H58.344V33.175H0Z" transform="translate(2227.344 -141)" fill="none"/>
      <path id="패스_246" data-name="패스 246" d="M2,3H28.454a.691.691,0,0,1,.6,1.034l-4.939,8.642,4.939,8.642a.691.691,0,0,1-.6,1.034H4.765v6.911H2Z" transform="translate(2253.277 -139.853)" fill="#000070"/>
    </g>
    <g id="그룹_776" data-name="그룹 776" transform="translate(1992.375 -528.625)">
      <g id="그룹_319" data-name="그룹 319" transform="translate(100 146)">
        <g id="그룹_318" data-name="그룹 318">
          <path id="패스_240" data-name="패스 240" d="M7.625,0A7.625,7.625,0,1,1,0,7.625,7.625,7.625,0,0,1,7.625,0Z" fill="#efc75e"/>
        </g>
        <path id="패스_241" data-name="패스 241" d="M33.834,27.353a6.481,6.481,0,1,0,6.481,6.481A6.481,6.481,0,0,0,33.834,27.353Zm0,11.965a5.484,5.484,0,1,1,5.484-5.484A5.484,5.484,0,0,1,33.834,39.318Zm.663-5.9c-.3-.125-1.394-.3-1.394-.777,0-.353.41-.456.656-.456a.96.96,0,0,1,.634.212.532.532,0,0,1,.156.236c.037.1.06.212.2.212h.73c.171,0,.216-.031.216-.22A1.505,1.505,0,0,0,34.34,31.2v-.628c0-.141-.045-.228-.216-.228h-.582c-.171,0-.216.086-.216.228v.6A1.553,1.553,0,0,0,31.9,32.7c0,1,.694,1.311,1.446,1.562.634.212,1.3.22,1.3.66s-.328.534-.73.534a.952.952,0,0,1-.731-.259.55.55,0,0,1-.141-.322c-.015-.2-.1-.22-.269-.22h-.723c-.171,0-.216.04-.216.22a1.713,1.713,0,0,0,1.491,1.61v.613c0,.141.045.228.216.228h.582c.171,0,.216-.087.216-.228v-.6a1.561,1.561,0,0,0,1.483-1.61C35.825,33.818,35.034,33.59,34.5,33.418Z" transform="translate(-26.209 -26.209)" fill="#c93"/>
        <circle id="타원_25" data-name="타원 25" cx="3.756" cy="3.756" r="3.756" transform="translate(3.869 3.869)" fill="#efc75e"/>
      </g>
      <path id="패스_680" data-name="패스 680" d="M.6,2.93V10H2.021V5.352H2.08L3.926,9.971H4.9l1.846-4.6h.059V10H8.232V2.93H6.416L4.453,7.725H4.375L2.412,2.93Z" transform="translate(103.211 147.16)" fill="#684c00"/>
    </g>
  </g>
</svg>
