<svg xmlns="http://www.w3.org/2000/svg" xmlns:xlink="http://www.w3.org/1999/xlink" width="53.578" height="39.194" viewBox="0 0 53.578 39.194">
  <defs>
    <style>
      .cls-1 {
        fill: #ff9811;
      }

      .cls-2 {
        clip-path: url(#clip-path);
      }

      .cls-3 {
        fill: none;
      }

      .cls-4 {
        fill: #ffeca1;
      }
    </style>
    <clipPath id="clip-path">
      <path id="패스_266" data-name="패스 266" class="cls-1" d="M811.007,524.13H790.849s-7.72-.632-7.854-8.619,0-22.828,0-22.828.4-7.554,7.854-7.687,45.665,0,45.665,0Z" transform="translate(41.063 753.063)"/>
    </clipPath>
  </defs>
  <g id="그룹_362" data-name="그룹 362" transform="translate(-824 -1238)">
    <path id="패스_32" data-name="패스 32" class="cls-1" d="M811.007,524.13H790.849s-7.72-.632-7.854-8.619,0-22.828,0-22.828.4-7.554,7.854-7.687,45.665,0,45.665,0Z" transform="translate(41.063 753.063)"/>
    <g id="마스크_그룹_27" data-name="마스크 그룹 27" class="cls-2">
      <g id="ancient-gate-fill" transform="translate(826.065 1241.473)">
        <path id="패스_3" data-name="패스 3" class="cls-3" d="M0,0H42.641V42.641H0Z"/>
        <path id="패스_4" data-name="패스 4" class="cls-4" d="M32.083,14.4a5.4,5.4,0,0,0,7.076,1.813A5.641,5.641,0,0,1,35.729,22l0,10.321H25.309V29.059a5.043,5.043,0,0,0-5.056-4.889,5.09,5.09,0,0,0-5.353,4.6l-.009.287v3.257H4.473V22A5.642,5.642,0,0,1,1.037,16.21,5.4,5.4,0,0,0,8.116,14.4H32.083ZM28.844,3a5.682,5.682,0,0,0,2.727,3.981,6.421,6.421,0,0,0,4.993.677,5.922,5.922,0,0,1-5.712,5.106l-.333.008H9.682A5.947,5.947,0,0,1,3.636,7.657,6.421,6.421,0,0,0,8.629,6.98,5.683,5.683,0,0,0,11.356,3Z" transform="translate(1.22 3.663)"/>
      </g>
    </g>
  </g>
</svg>
