<svg xmlns="http://www.w3.org/2000/svg" xmlns:xlink="http://www.w3.org/1999/xlink" width="291.941" height="57.134" viewBox="0 0 291.941 57.134">
  <defs>
    <filter id="사각형_83" x="0" y="0" width="291.941" height="57.134" filterUnits="userSpaceOnUse">
      <feOffset dy="3" input="SourceAlpha"/>
      <feGaussianBlur stdDeviation="3" result="blur"/>
      <feFlood flood-opacity="0.161"/>
      <feComposite operator="in" in2="blur"/>
      <feComposite in="SourceGraphic"/>
    </filter>
    <clipPath id="clip-path">
      <path id="패스_118" data-name="패스 118" d="M11.691,0H54.118L28.059,39.75H0V11.691A11.691,11.691,0,0,1,11.691,0Z" transform="translate(1583 919)" fill="#933ec5"/>
    </clipPath>
  </defs>
  <g id="그룹_345" data-name="그룹 345" transform="translate(-1264.089 -1186.544)">
    <g transform="matrix(1, 0, 0, 1, 1264.09, 1186.54)" filter="url(#사각형_83)">
      <rect id="사각형_83-2" data-name="사각형 83" width="273.941" height="39.134" rx="9" transform="translate(9 6)" fill="#fff"/>
    </g>
    <path id="패스_32" data-name="패스 32" d="M811.007,524.13H790.849s-7.72-.632-7.854-8.619,0-22.828,0-22.828.4-7.554,7.854-7.687,45.665,0,45.665,0Z" transform="translate(490.093 707.548)" fill="#933ec5"/>
    <g id="마스크_그룹_15" data-name="마스크 그룹 15" transform="translate(-310.03 273.299)" clip-path="url(#clip-path)">
      <g id="home-heart-fill" transform="translate(1586.341 924.378)">
        <path id="패스_116" data-name="패스 116" d="M0,0H40.729V40.729H0Z" fill="none"/>
        <path id="패스_117" data-name="패스 117" d="M32.511,31.246a1.631,1.631,0,0,1-1.658,1.6H7.634a1.631,1.631,0,0,1-1.658-1.6V16.819H1L18.127,1.769a1.7,1.7,0,0,1,2.232,0l17.127,15.05H32.511ZM19.243,26.437l5.571-5.385a3.522,3.522,0,0,0,0-5.1,3.823,3.823,0,0,0-5.277,0l-.294.284-.294-.284a3.823,3.823,0,0,0-5.277,0,3.522,3.522,0,0,0,0,5.1Z" transform="translate(1.121 1.516)" fill="#dcdfff"/>
      </g>
    </g>
  </g>
</svg>
