<svg xmlns="http://www.w3.org/2000/svg" xmlns:xlink="http://www.w3.org/1999/xlink" width="291.941" height="57.134" viewBox="0 0 291.941 57.134">
  <defs>
    <filter id="사각형_83" x="0" y="0" width="291.941" height="57.134" filterUnits="userSpaceOnUse">
      <feOffset dy="3" input="SourceAlpha"/>
      <feGaussianBlur stdDeviation="3" result="blur"/>
      <feFlood flood-opacity="0.161"/>
      <feComposite operator="in" in2="blur"/>
      <feComposite in="SourceGraphic"/>
    </filter>
    <clipPath id="clip-path">
      <path id="패스_258" data-name="패스 258" d="M11.528,0H53.361l-25.7,39.194H0V11.528A11.528,11.528,0,0,1,11.528,0Z" transform="translate(29 492)" fill="#ea348b"/>
    </clipPath>
  </defs>
  <g id="그룹_347" data-name="그룹 347" transform="translate(-967.059 -1009.059)">
    <g transform="matrix(1, 0, 0, 1, 967.06, 1009.06)" filter="url(#사각형_83)">
      <rect id="사각형_83-2" data-name="사각형 83" width="273.941" height="39.134" rx="9" transform="translate(9 6)" fill="#fff"/>
    </g>
    <path id="패스_32" data-name="패스 32" d="M811.007,524.13H790.849s-7.72-.632-7.854-8.619,0-22.828,0-22.828.4-7.554,7.854-7.687,45.665,0,45.665,0Z" transform="translate(193.063 530.063)" fill="#ea348b"/>
    <g id="마스크_그룹_23" data-name="마스크 그룹 23" transform="translate(947.698 523)" clip-path="url(#clip-path)">
      <g id="store-2-fill" transform="translate(34.023 497.297)">
        <path id="패스_256" data-name="패스 256" d="M0,0H38.041V38.041H0Z" fill="none"/>
        <path id="패스_257" data-name="패스 257" d="M33.53,29.1v3.012H2.549V29.1H4.1V18.928A6.721,6.721,0,0,1,1,13.293a6.584,6.584,0,0,1,.981-3.468l4.2-7.073A1.558,1.558,0,0,1,7.523,2H28.558a1.558,1.558,0,0,1,1.341.753L34.085,9.8a6.656,6.656,0,0,1-2.1,9.125V29.1ZM8.418,5.012,4.65,11.355A3.721,3.721,0,0,0,6.518,16.14a3.933,3.933,0,0,0,5.05-1.448,1.566,1.566,0,0,1,2.875,0,3.915,3.915,0,0,0,7.194,0,1.566,1.566,0,0,1,2.875,0,3.864,3.864,0,0,0,3.257,2.334,3.908,3.908,0,0,0,3.618-1.761,3.675,3.675,0,0,0,.029-3.933l-3.756-6.32H8.42Z" transform="translate(0.981 1.963)" fill="#ffd6ea"/>
      </g>
    </g>
  </g>
</svg>
