<svg xmlns="http://www.w3.org/2000/svg" xmlns:xlink="http://www.w3.org/1999/xlink" width="53.578" height="39.194" viewBox="0 0 53.578 39.194">
  <defs>
    <style>
      .cls-1 {
        fill: #ea348b;
      }

      .cls-2 {
        clip-path: url(#clip-path);
      }

      .cls-3 {
        fill: none;
      }

      .cls-4 {
        fill: #ffd6ea;
      }
    </style>
    <clipPath id="clip-path">
      <path id="패스_267" data-name="패스 267" class="cls-1" d="M811.007,524.13H790.849s-7.72-.632-7.854-8.619,0-22.828,0-22.828.4-7.554,7.854-7.687,45.665,0,45.665,0Z" transform="translate(40.582 810.542)"/>
    </clipPath>
  </defs>
  <g id="그룹_366" data-name="그룹 366" transform="translate(-823.519 -1295.479)">
    <path id="패스_32" data-name="패스 32" class="cls-1" d="M811.007,524.13H790.849s-7.72-.632-7.854-8.619,0-22.828,0-22.828.4-7.554,7.854-7.687,45.665,0,45.665,0Z" transform="translate(40.582 810.542)"/>
    <g id="마스크_그룹_28" data-name="마스크 그룹 28" class="cls-2">
      <g id="store-2-fill" transform="translate(829.239 1300.776)">
        <path id="패스_256" data-name="패스 256" class="cls-3" d="M0,0H38.041V38.041H0Z"/>
        <path id="패스_257" data-name="패스 257" class="cls-4" d="M33.53,29.1v3.012H2.549V29.1H4.1V18.928A6.721,6.721,0,0,1,1,13.293a6.584,6.584,0,0,1,.981-3.468l4.2-7.073A1.558,1.558,0,0,1,7.523,2H28.558a1.558,1.558,0,0,1,1.341.753L34.085,9.8a6.656,6.656,0,0,1-2.1,9.125V29.1ZM8.418,5.012,4.65,11.355A3.721,3.721,0,0,0,6.518,16.14a3.933,3.933,0,0,0,5.05-1.448,1.566,1.566,0,0,1,2.875,0,3.915,3.915,0,0,0,7.194,0,1.566,1.566,0,0,1,2.875,0,3.864,3.864,0,0,0,3.257,2.334,3.908,3.908,0,0,0,3.618-1.761,3.675,3.675,0,0,0,.029-3.933l-3.756-6.32H8.42Z" transform="translate(0.981 1.963)"/>
      </g>
    </g>
  </g>
</svg>
