<svg xmlns="http://www.w3.org/2000/svg" xmlns:xlink="http://www.w3.org/1999/xlink" width="53.578" height="39.194" viewBox="0 0 53.578 39.194">
  <defs>
    <style>
      .cls-1 {
        fill: #00bdc4;
      }

      .cls-2 {
        clip-path: url(#clip-path);
      }

      .cls-3 {
        fill: none;
      }

      .cls-4 {
        fill: #c9fdff;
      }
    </style>
    <clipPath id="clip-path">
      <path id="패스_268" data-name="패스 268" class="cls-1" d="M811.007,524.13H790.849s-7.72-.632-7.854-8.619,0-22.828,0-22.828.4-7.554,7.854-7.687,45.665,0,45.665,0Z" transform="translate(40.672 857.064)"/>
    </clipPath>
  </defs>
  <g id="그룹_363" data-name="그룹 363" transform="translate(-823.609 -1342)">
    <path id="패스_32" data-name="패스 32" class="cls-1" d="M811.007,524.13H790.849s-7.72-.632-7.854-8.619,0-22.828,0-22.828.4-7.554,7.854-7.687,45.665,0,45.665,0Z" transform="translate(40.672 857.064)"/>
    <g id="마스크_그룹_29" data-name="마스크 그룹 29" class="cls-2">
      <g id="cup-fill" transform="translate(828.376 1343.447)">
        <path id="패스_77" data-name="패스 77" class="cls-3" d="M0,0H44.737V44.737H0Z"/>
        <path id="패스_78" data-name="패스 78" class="cls-4" d="M7.313,3H33.875a3.481,3.481,0,0,1,3.542,3.417v5.126a3.481,3.481,0,0,1-3.542,3.417H30.334v5.126a6.962,6.962,0,0,1-7.083,6.835H12.625a6.962,6.962,0,0,1-7.083-6.835V4.709A1.741,1.741,0,0,1,7.313,3ZM30.334,6.417v5.126h3.542V6.417ZM2,30.339H33.875v3.417H2Z" transform="translate(2.66 3.99)"/>
      </g>
    </g>
  </g>
</svg>
