<svg xmlns="http://www.w3.org/2000/svg" width="20" height="20" viewBox="0 0 20 20">
  <g id="그룹_320" data-name="그룹 320" transform="translate(-100 -146)">
    <g id="그룹_323" data-name="그룹 323">
      <g id="그룹_319" data-name="그룹 319" transform="translate(100 146)">
        <g id="그룹_318" data-name="그룹 318">
          <path id="패스_240" data-name="패스 240" d="M10,0A10,10,0,1,1,0,10,10,10,0,0,1,10,0Z" fill="#efc75e"/>
        </g>
        <path id="패스_241" data-name="패스 241" d="M35.042,27.353a7.689,7.689,0,1,0,7.689,7.689A7.689,7.689,0,0,0,35.042,27.353Zm0,14.195a6.506,6.506,0,1,1,6.506-6.506A6.506,6.506,0,0,1,35.042,41.548Zm.787-7c-.354-.148-1.654-.354-1.654-.922,0-.419.486-.541.778-.541a1.138,1.138,0,0,1,.752.251.632.632,0,0,1,.185.28c.044.121.071.251.239.251h.866c.2,0,.257-.037.257-.261a1.785,1.785,0,0,0-1.609-1.686v-.745c0-.167-.053-.27-.257-.27H34.7c-.2,0-.257.1-.257.27v.717a1.842,1.842,0,0,0-1.689,1.8c0,1.183.823,1.555,1.715,1.853.752.252,1.539.261,1.539.783s-.389.633-.866.633a1.129,1.129,0,0,1-.867-.308.653.653,0,0,1-.167-.382c-.018-.233-.115-.261-.319-.261h-.858c-.2,0-.257.047-.257.261a2.033,2.033,0,0,0,1.768,1.91v.727c0,.167.053.27.257.27h.69c.2,0,.257-.1.257-.27V38.2a1.852,1.852,0,0,0,1.76-1.91C37.4,35.023,36.465,34.753,35.828,34.548Z" transform="translate(-25.042 -25.042)" fill="#c93"/>
        <circle id="타원_25" data-name="타원 25" cx="4.926" cy="4.926" r="4.926" transform="translate(5.074 5.074)" fill="#efc75e"/>
      </g>
      <text id="M" transform="translate(105 148)" fill="#684c00" font-size="11" font-family="SegoeUI-Bold, Segoe UI" font-weight="700"><tspan x="0" y="12">M</tspan></text>
    </g>
  </g>
</svg>
