<svg xmlns="http://www.w3.org/2000/svg" width="64" height="70" viewBox="0 0 64 70">
  <g id="그룹_757" data-name="그룹 757" transform="translate(434 -2685)">
    <path id="사각형_55" data-name="사각형 55" d="M0,0H64a0,0,0,0,1,0,0V60A10,10,0,0,1,54,70H10A10,10,0,0,1,0,60V0A0,0,0,0,1,0,0Z" transform="translate(-434 2685)" fill="#fbe300"/>
    <g id="그룹_755" data-name="그룹 755" transform="translate(-996.143 2516.349)">
      <path id="패스_656" data-name="패스 656" d="M582.09,185.788l12.553-7.362,12.553,7.362v14.725l-12.553,7.363-12.553-7.363Z" transform="translate(0 0)" fill="#1a75d5"/>
      <path id="패스_657" data-name="패스 657" d="M627.761,227.3v2.631s.023.483.613.014l5.791-3.742s.2-.08.2-.536a.689.689,0,0,0-.2-.465c-.206-.206-5.931-3.809-5.931-3.809s-.28-.08-.28.34V224.6h-5.674A1.171,1.171,0,0,0,621,225.767v5.883l1.655,1.27s.663.51.663-.1v-5.132s.054-.387.8-.387h3.841" transform="translate(-31.393 -34.663)" fill="#f7e200"/>
    </g>
    <path id="패스_658" data-name="패스 658" d="M18.61,1.857H17.147V6.725H15.78V2.09H14.358v11.5H15.78V7.969h1.367v6.248H18.61ZM8.534,11.141h.82a24.694,24.694,0,0,0,4.389-.383l-.15-1.326a20.238,20.238,0,0,1-3.527.369V3.279H8.534ZM30.522,1.857H28.991V14.23h1.531ZM20.9,11.318h6.016V2.869h-1.5v3.09H22.414V2.869H20.9Zm1.518-1.244V7.148h2.994v2.926Zm20.415-8.2H41.312V3.662H38.359a3.279,3.279,0,0,0-2.447-1.053,3.13,3.13,0,0,0-3.268,3.172,3.131,3.131,0,0,0,3.268,3.158,3.27,3.27,0,0,0,2.454-1.066h2.946v3.063H42.83Zm-8.736,3.91a1.8,1.8,0,1,1,3.609,0,1.8,1.8,0,1,1-3.609,0Zm.629,8.189h8.422V12.74h-6.9V10.006H34.722Zm4.307-9.078h2.283v1.75H39.036a3.235,3.235,0,0,0,.116-.861A3.4,3.4,0,0,0,39.029,4.893Zm16.04-3.035H53.552V3.5h-2.5a7.125,7.125,0,0,0,.089-1.107H45.567v1.23H49.45c-.212,1.641-1.661,2.919-4.566,3.527l.533,1.244c2.734-.615,4.546-1.846,5.312-3.732h2.823V5.877h-2.98V7.039h2.98v1.08h1.518ZM46.935,9.8h6.617v.916h-6.6v3.377H55.4V12.877H48.466V11.852h6.6V8.6H46.935Z" transform="translate(-434 2727)" fill="#100"/>
  </g>
</svg>
