<svg xmlns="http://www.w3.org/2000/svg" xmlns:xlink="http://www.w3.org/1999/xlink" width="235" height="34" viewBox="0 0 235 34">
  <defs>
    <style>
      .cls-1 {
        fill: #ff9811;
      }

      .cls-2 {
        fill: #1a1a1a;
      }

      .cls-3 {
        clip-path: url(#clip-path);
      }

      .cls-4 {
        fill: none;
      }

      .cls-5 {
        fill: #ffeca1;
      }
    </style>
    <clipPath id="clip-path">
      <path id="패스_251" data-name="패스 251" class="cls-1" d="M10,0H46.29L24,34H0V10A10,10,0,0,1,10,0Z" transform="translate(0 324)"/>
    </clipPath>
  </defs>
  <g id="그룹_348" data-name="그룹 348" transform="translate(-677 -714)">
    <path id="사각형_285" data-name="사각형 285" class="cls-2" d="M10,0H225a10,10,0,0,1,10,10V34a0,0,0,0,1,0,0H0a0,0,0,0,1,0,0V10A10,10,0,0,1,10,0Z" transform="translate(677 714)"/>
    <path id="패스_252" data-name="패스 252" class="cls-1" d="M10,0H46.29L24,34H0V10A10,10,0,0,1,10,0Z" transform="translate(677 714)"/>
    <g id="마스크_그룹_21" data-name="마스크 그룹 21" class="cls-3" transform="translate(677 390)">
      <g id="ancient-gate-fill" transform="translate(1.783 327)">
        <path id="패스_249" data-name="패스 249" class="cls-4" d="M0,0H36.83V36.83H0Z"/>
        <path id="패스_250" data-name="패스 250" class="cls-5" d="M27.847,12.847a4.662,4.662,0,0,0,6.111,1.566A4.872,4.872,0,0,1,31,19.407v8.914H22V25.507a4.356,4.356,0,0,0-4.367-4.222,4.4,4.4,0,0,0-4.624,3.975L13,25.507v2.813H4V19.408a4.873,4.873,0,0,1-2.968-5,4.662,4.662,0,0,0,6.114-1.563h20.7ZM25.05,3a4.908,4.908,0,0,0,2.356,3.438,5.546,5.546,0,0,0,4.312.585,5.115,5.115,0,0,1-4.934,4.41l-.288.007H8.5A5.137,5.137,0,0,1,3.277,7.022a5.546,5.546,0,0,0,4.312-.585A4.908,4.908,0,0,0,9.945,3Z" transform="translate(0.917 2.755)"/>
      </g>
    </g>
  </g>
</svg>
