<svg xmlns="http://www.w3.org/2000/svg" xmlns:xlink="http://www.w3.org/1999/xlink" width="235" height="34" viewBox="0 0 235 34">
  <defs>
    <style>
      .cls-1 {
        fill: #933ec5;
      }

      .cls-2 {
        fill: #1a1a1a;
      }

      .cls-3 {
        clip-path: url(#clip-path);
      }

      .cls-4 {
        fill: none;
      }

      .cls-5 {
        fill: #dcdfff;
      }
    </style>
    <clipPath id="clip-path">
      <path id="패스_264" data-name="패스 264" class="cls-1" d="M10,0H46.29L24,34H0V10A10,10,0,0,1,10,0Z" transform="translate(1583 919)"/>
    </clipPath>
  </defs>
  <g id="그룹_352" data-name="그룹 352" transform="translate(-1810 -756)">
    <path id="사각형_285" data-name="사각형 285" class="cls-2" d="M10,0H225a10,10,0,0,1,10,10V34a0,0,0,0,1,0,0H0a0,0,0,0,1,0,0V10A10,10,0,0,1,10,0Z" transform="translate(1810 756)"/>
    <path id="패스_252" data-name="패스 252" class="cls-1" d="M10,0H46.29L24,34H0V10A10,10,0,0,1,10,0Z" transform="translate(1810 756)"/>
    <g id="마스크_그룹_25" data-name="마스크 그룹 25" class="cls-3" transform="translate(227 -163)">
      <g id="home-heart-fill" transform="translate(1585.858 923.6)">
        <path id="패스_262" data-name="패스 262" class="cls-4" d="M0,0H34.838V34.838H0Z"/>
        <path id="패스_263" data-name="패스 263" class="cls-5" d="M27.953,26.922a1.4,1.4,0,0,1-1.419,1.371H6.674a1.4,1.4,0,0,1-1.419-1.371V14.581H1L15.65,1.709a1.455,1.455,0,0,1,1.909,0l14.65,12.873H27.953ZM16.6,22.809,21.369,18.2a3.013,3.013,0,0,0,0-4.363,3.27,3.27,0,0,0-4.514,0l-.251.243-.251-.243a3.27,3.27,0,0,0-4.514,0,3.013,3.013,0,0,0,0,4.363Z" transform="translate(0.814 1.101)"/>
      </g>
    </g>
  </g>
</svg>
