<svg xmlns="http://www.w3.org/2000/svg" width="64" height="70" viewBox="0 0 64 70">
  <g id="그룹_756" data-name="그룹 756" transform="translate(434 -2615)">
    <path id="사각형_57" data-name="사각형 57" d="M10,0H54A10,10,0,0,1,64,10V70a0,0,0,0,1,0,0H0a0,0,0,0,1,0,0V10A10,10,0,0,1,10,0Z" transform="translate(-434 2615)" fill="#bbb"/>
    <path id="패스_655" data-name="패스 655" d="M-17.3-3.322l1.354,1.764a2.874,2.874,0,0,1-.738.1c-1.613,0-2.755-1.224-2.748-3.486s1.135-3.486,2.748-3.486,2.755,1.224,2.748,3.486a3.8,3.8,0,0,1-.9,2.734l-.841-1.107Zm-3.924-1.627C-21.231-1.757-19.289.137-16.685.137a4.7,4.7,0,0,0,1.743-.321l.827,1.046h1.736L-13.752-.9a5.156,5.156,0,0,0,1.606-4.047c.007-3.2-1.948-5.086-4.539-5.086S-21.231-8.148-21.224-4.949ZM-10.406,0h1.777V-3.623h1.859L-4.828,0h1.982l-2.14-3.924A2.835,2.835,0,0,0-3.2-6.74C-3.208-8.627-4.418-9.9-6.687-9.9h-3.719Zm1.777-5.113V-8.408h1.668c1.34,0,1.941.615,1.941,1.668s-.6,1.634-1.941,1.627ZM4.349-9.447v-.916H2.736v.916c-.007,1.9-1.88,3.814-4.43,4.279l.67,1.271a6.558,6.558,0,0,0,4.573-3.35A6.474,6.474,0,0,0,8.123-3.9l.684-1.271C6.216-5.619,4.349-7.54,4.349-9.447ZM-2.035-.355H9.257V-1.613H-2.035ZM20.773-11.129H19.323v3.678h-1.3V-10.9H16.589v8.682h1.436V-6.207h1.3v4.361h1.449ZM10.2-4.225l.725,1.08c3.459-1.463,4.744-3.8,4.744-6.945H10.819v1.217h3.363a5.676,5.676,0,0,1-.226,1.107l-3.685.205.205,1.244,2.946-.321A6.787,6.787,0,0,1,10.2-4.225Zm2.242,5.2h8.682V-.26H13.964V-2.953H12.446Z" transform="translate(-402 2670)" fill="#100"/>
    <g id="qr-code-scan-svgrepo-com" transform="translate(-417.454 2624.04)">
      <path id="패스_25" data-name="패스 25" d="M15,0A15,15,0,1,1,0,15,15,15,0,0,1,15,0Z" transform="translate(0.954 0.864)" fill="#fff"/>
      <path id="패스_5" data-name="패스 5" d="M122.755,123.019H104.289a.186.186,0,0,1-.189-.189v-18.54a.186.186,0,0,1,.189-.189h18.473a.186.186,0,0,1,.189.189v18.54A.2.2,0,0,1,122.755,123.019Z" transform="translate(-97.571 -97.561)" fill="#fff"/>
      <path id="패스_6" data-name="패스 6" d="M135.027,135.115h-5.539a.086.086,0,0,1-.088-.088v-5.539a.086.086,0,0,1,.088-.088h5.539a.086.086,0,0,1,.088.088v5.539A.086.086,0,0,1,135.027,135.115Z" transform="translate(-121.395 -121.365)"/>
      <rect id="사각형_28" data-name="사각형 28" width="3.924" height="3.924" transform="translate(8.9 8.931)" fill="#fff"/>
      <g id="그룹_62" data-name="그룹 62" transform="translate(8.005 9.669)">
        <rect id="사각형_29" data-name="사각형 29" width="2.448" height="2.448" transform="translate(1.634)"/>
        <path id="패스_7" data-name="패스 7" d="M135.027,293.715h-5.539a.086.086,0,0,1-.088-.088v-5.539a.086.086,0,0,1,.088-.088h5.539a.086.086,0,0,1,.088.088v5.539A.086.086,0,0,1,135.027,293.715Z" transform="translate(-129.4 -279.629)"/>
      </g>
      <rect id="사각형_30" data-name="사각형 30" width="3.924" height="3.924" transform="translate(8.9 18.936)" fill="#fff"/>
      <g id="그룹_63" data-name="그룹 63" transform="translate(9.621 8.035)">
        <rect id="사각형_31" data-name="사각형 31" width="2.448" height="2.448" transform="translate(0 11.639)"/>
        <path id="패스_8" data-name="패스 8" d="M293.627,135.115h-5.539a.086.086,0,0,1-.088-.088v-5.539a.086.086,0,0,1,.088-.088h5.539a.086.086,0,0,1,.088.088v5.539A.086.086,0,0,1,293.627,135.115Z" transform="translate(-279.629 -129.4)"/>
      </g>
      <rect id="사각형_32" data-name="사각형 32" width="3.924" height="3.924" transform="translate(18.879 8.931)" fill="#fff"/>
      <g id="그룹_64" data-name="그룹 64" transform="translate(17.982 9.669)">
        <rect id="사각형_33" data-name="사각형 33" width="2.448" height="2.448" transform="translate(1.634)"/>
        <path id="패스_9" data-name="패스 9" d="M293.627,293.715h-5.539a.086.086,0,0,1-.088-.088v-5.539a.086.086,0,0,1,.088-.088h5.539a.086.086,0,0,1,.088.088v5.539A.086.086,0,0,1,293.627,293.715Z" transform="translate(-288 -279.629)"/>
      </g>
      <rect id="사각형_34" data-name="사각형 34" width="3.924" height="3.924" transform="translate(18.879 18.936)" fill="#fff"/>
      <g id="그룹_65" data-name="그룹 65" transform="translate(8.023 8.035)">
        <rect id="사각형_35" data-name="사각형 35" width="2.448" height="2.448" transform="translate(11.607 11.639)"/>
        <rect id="사각형_36" data-name="사각형 36" width="0.713" height="1.52" transform="translate(6.662)"/>
        <path id="패스_10" data-name="패스 10" d="M238.86,144.055v-.391h-.543v-.252h.479v-.934h.511V141.5H238.6v.391h-.511v1.016h-.473v.4H237.1v1.52h.707v-.934h.341v.757h.7v.927h.713v-1.52Z" transform="translate(-230.337 -140.737)"/>
        <rect id="사각형_37" data-name="사각형 37" width="0.921" height="1.71" transform="translate(0 6.529)"/>
        <rect id="사각형_38" data-name="사각형 38" width="1.975" height="0.801" transform="translate(3.078 8.384)"/>
        <path id="패스_11" data-name="패스 11" d="M167.754,236.2H166.48v.4H164.6v.795h1.981V237h.631v.7h1.281v-.795h-.738Z" transform="translate(-162.411 -229.463)"/>
        <path id="패스_12" data-name="패스 12" d="M264.681,240.807h-.99V240.1h-1.274v.461h-.807v.65H260.7v.795h1.274v-.65h.915V240.9h.511v.707h1.129v.549H265.8v-.8h-1.123Z" transform="translate(-252.449 -233.117)"/>
        <rect id="사각형_39" data-name="사각형 39" width="1.274" height="0.801" transform="translate(12.901 7.173)"/>
        <rect id="사각형_40" data-name="사각형 40" width="1.274" height="0.801" transform="translate(14.377 6.643)"/>
        <rect id="사각형_41" data-name="사각형 41" width="1.274" height="0.801" transform="translate(6.554 7.292)"/>
        <rect id="사각형_42" data-name="사각형 42" width="1.274" height="0.801" transform="translate(0.99 8.396)"/>
        <rect id="사각형_43" data-name="사각형 43" width="0.713" height="1.533" transform="translate(8.403 14.194)"/>
        <path id="패스_13" data-name="패스 13" d="M230.128,294.8h.511v-1.533h-.713v.934h-.341v-.757h-.707v-.744h.025V291.9h-1.1v.795h.366v1.337h.707v.4h.543v.252h-.479v1.527h.713v-1.022h.479Z" transform="translate(-221.624 -281.649)"/>
      </g>
    </g>
  </g>
</svg>
