<svg xmlns="http://www.w3.org/2000/svg" width="44" height="44" viewBox="0 0 44 44">
  <g id="코스설정" transform="translate(-276 -260)">
    <rect id="사각형_62" data-name="사각형 62" width="44" height="44" transform="translate(276 260)" fill="rgba(0,0,112,0)"/>
    <path id="setting-svgrepo-com" d="M10.6,20.1a1.9,1.9,0,0,0,3.8,0V18.875a6.613,6.613,0,0,0,1.264-.524l.867.867a1.9,1.9,0,1,0,2.687-2.687l-.867-.867a6.613,6.613,0,0,0,.524-1.264H20.1a1.9,1.9,0,0,0,0-3.8H18.875a6.612,6.612,0,0,0-.524-1.264l.867-.867a1.9,1.9,0,1,0-2.687-2.687l-.867.867A6.61,6.61,0,0,0,14.4,6.125V4.9a1.9,1.9,0,0,0-3.8,0V6.125a6.61,6.61,0,0,0-1.264.524l-.867-.867A1.9,1.9,0,0,0,5.782,8.469l.867.867A6.609,6.609,0,0,0,6.125,10.6H4.9a1.9,1.9,0,0,0,0,3.8H6.125a6.61,6.61,0,0,0,.524,1.264l-.867.867a1.9,1.9,0,1,0,2.687,2.687l.867-.867a6.612,6.612,0,0,0,1.264.524Zm1.9-4.75A2.85,2.85,0,1,0,9.65,12.5,2.85,2.85,0,0,0,12.5,15.35Z" transform="translate(286 270)" fill="#fff" fill-rule="evenodd"/>
  </g>
</svg>
