<svg xmlns="http://www.w3.org/2000/svg" width="178.012" height="275.594" viewBox="0 0 178.012 275.594">
  <g id="그룹_179" data-name="그룹 179" transform="translate(0 0)">
    <path id="패스_109" data-name="패스 109" d="M387.156,1776.4l23.731-9.011c-.191-.281-.392-.578-.6-.89-2.488-3.779-5.77-9.353-9.092-11.906-1.518.467-8.011,2.306-9.137,3.432s2.734,6.393,3.181,7.92c-.749.473-1.488.94-2.2,1.4C389.252,1769.831,386.257,1772.339,387.156,1776.4Z" transform="translate(-317.264 -1515.245)" fill="#37599c"/>
    <path id="패스_110" data-name="패스 110" d="M392.1,1765.95c-.749.473-1.487.94-2.2,1.4a51.025,51.025,0,0,1,9.719-1.517,29.827,29.827,0,0,1,3.488.045,24.852,24.852,0,0,1,4.041.623c-2.488-3.779-5.77-9.353-9.092-11.906-1.518.467-8.011,2.306-9.136,3.432S391.65,1764.423,392.1,1765.95Z" transform="translate(-314.119 -1515.245)" fill="#37599c" opacity="0.41" style="mix-blend-mode: multiply;isolation: isolate"/>
    <path id="패스_111" data-name="패스 111" d="M275.825,1824.333h17.952c-.558-6.367-6.041-18.313-6.041-18.313H277.624s1.925,6.206,1.105,9.76a3.265,3.265,0,0,1-1.09,1.955C274.709,1819.966,275.825,1824.333,275.825,1824.333Z" transform="translate(-161.325 -1548.74)" fill="#37599c"/>
    <path id="패스_112" data-name="패스 112" d="M276.721,1815.78a14.963,14.963,0,0,1,13.645,6.578c.312.458.643,1.267,1.035,1.975h.367c-.558-6.367-6.041-18.313-6.041-18.313H275.616S277.541,1812.226,276.721,1815.78Z" transform="translate(-159.317 -1548.74)" fill="#37599c" opacity="0.41" style="mix-blend-mode: multiply;isolation: isolate"/>
    <path id="패스_113" data-name="패스 113" d="M225.661,1176.728c.971-.193,4.565-5.443,5.208-4.69a11.5,11.5,0,0,1,1.3,3.472c1.647,5.432,7.165,15.5,7.393,26.6.16,7.773-10.447,32.6-15.936,34.93-2.288.97-3.9,1.447-6.19.511-2.935-1.2-4.159-7.291-1.42-8.888,6.855-4,11.5-17.463,14.867-27.354C231.73,1198.833,225.661,1176.728,225.661,1176.728Z" transform="translate(-85.808 -1135.725)" fill="#ffaf82"/>
    <g id="그룹_167" data-name="그룹 167" transform="translate(135.064 25.536)">
      <path id="패스_114" data-name="패스 114" d="M245.329,1160.119l-.782-4.607s1.211-1.827.753-5.617a18.8,18.8,0,0,0-.945-4.944c-.5-1.234-1.4-2.77-2.152-2.789a1.273,1.273,0,0,0-1.086.488s-.705-1.355-1.371-1.385-1.222,1.141-1.222,1.141-.623-1.11-1.474-.943a1.03,1.03,0,0,0-.87,1.072,1.127,1.127,0,0,0-1.256-.655c-.854.226-.721,2.414-.574,3.21-.745.39-.459,2.138-.768,3.161a3.8,3.8,0,0,0,.514,3.973c1.272,1.64,3.7,3.668,3.939,4.505s1.687,4.151,1.687,4.151S241.842,1162.537,245.329,1160.119Z" transform="translate(-233.245 -1141.265)" fill="#ffaf82"/>
      <g id="그룹_161" data-name="그룹 161" transform="translate(2.928 6.643)">
        <path id="패스_115" data-name="패스 115" d="M247.8,1160.556s.082.046.213.13a9.536,9.536,0,0,1,2.319,2.087,8.332,8.332,0,0,1,1.242,3.388c.063.371.088.613.089.62a.124.124,0,0,0,.137.113h0a.128.128,0,0,0,.109-.138c0-.035-.033-.329-.109-.759a8.33,8.33,0,0,0-1.272-3.378,9.626,9.626,0,0,0-2.61-2.283.112.112,0,0,0-.05-.015.126.126,0,0,0-.073.236Z" transform="translate(-247.735 -1160.32)" fill="#734c37"/>
      </g>
      <g id="그룹_162" data-name="그룹 162" transform="translate(5.144 1.008)">
        <path id="패스_116" data-name="패스 116" d="M244.886,1147.873c.049.361.093.678.128.9a4.032,4.032,0,0,0,.187.734,3.8,3.8,0,0,0,.19.447c.261.521.591.875.841.9a1.91,1.91,0,0,0,.44,0,.99.99,0,0,0,.578-.257.961.961,0,0,0,.261-.5,1.831,1.831,0,0,0,.029-.534.1.1,0,0,0-.007-.032.128.128,0,0,0-.01-.024.134.134,0,0,0-.252.075.144.144,0,0,1,0,.021h0a.993.993,0,0,1-.21.8.979.979,0,0,1-.8.184c-.157-.016-.543-.449-.794-1.134l0-.013a3.776,3.776,0,0,1-.182-.709c-.033-.217-.076-.518-.122-.864-.191-1.416-.45-3.568-.454-3.6a.133.133,0,0,0-.149-.117h0a.134.134,0,0,0-.116.149C244.44,1144.332,244.7,1146.453,244.886,1147.873Z" transform="translate(-244.435 -1144.155)" fill="#734c37"/>
      </g>
      <g id="그룹_163" data-name="그룹 163" transform="translate(2.8 1.138)">
        <path id="패스_117" data-name="패스 117" d="M259.038,1146.976a.135.135,0,0,0,.116-.15c-.124-1.012-.231-2.165-.232-2.177a.134.134,0,0,0-.146-.122.132.132,0,0,0-.122.146c0,.011.108,1.169.233,2.185a.135.135,0,0,0,.15.117Z" transform="translate(-258.654 -1144.527)" fill="#734c37"/>
      </g>
      <g id="그룹_164" data-name="그룹 164" transform="translate(3.579 5.68)">
        <path id="패스_118" data-name="패스 118" d="M250.4,1157.745c.02.047.04.1.063.145.291.658.83,1.6,1.52,1.549l.073-.007a1.027,1.027,0,0,0,.855-.745,1.518,1.518,0,0,0,.08-.464.12.12,0,0,0-.006-.037l0-.012a.134.134,0,0,0-.26.048.111.111,0,0,1,0,.018c0,.13-.067.884-.757.932-.4.027-.872-.505-1.272-1.427-.015-.034-.03-.068-.044-.1a.135.135,0,0,0-.249.1Z" transform="translate(-250.393 -1157.558)" fill="#734c37"/>
      </g>
      <g id="그룹_165" data-name="그룹 165" transform="translate(1.101 2.882)">
        <path id="패스_119" data-name="패스 119" d="M252.9,1150.6a8.507,8.507,0,0,0,2.741-.617c.455-.184.72-.23.859-.148s.2.289.255.711a1.265,1.265,0,0,1-.391.885,4.663,4.663,0,0,1-1.932,1.305.131.131,0,0,0-.084.185,2.263,2.263,0,0,1,.228,1.989.129.129,0,0,0,.051.177.127.127,0,0,0,.08.015.132.132,0,0,0,.1-.065,2.172,2.172,0,0,0,.017-1.652,3.526,3.526,0,0,0-.145-.377c-.009-.022-.018-.043-.028-.065a4.05,4.05,0,0,0,.72-.352q.111-.067.223-.142a4.378,4.378,0,0,0,1.147-1.069,1.3,1.3,0,0,0,.276-.864c-.052-.438-.138-.76-.382-.9-.259-.153-.623-.058-1.089.131a8.238,8.238,0,0,1-2.647.6.131.131,0,0,0-.129.133A.129.129,0,0,0,252.9,1150.6Z" transform="translate(-252.766 -1149.531)" fill="#734c37"/>
      </g>
      <g id="그룹_166" data-name="그룹 166" transform="translate(7.568 1.251)">
        <path id="패스_120" data-name="패스 120" d="M239.122,1149.563c.058.178.119.342.182.495h0a4.587,4.587,0,0,0,.238.493,1.711,1.711,0,0,0,.7.746.82.82,0,0,0,.463.076.929.929,0,0,0,.222-.059.983.983,0,0,0,.2-.107c.643-.447.316-1.5.133-2.087-.023-.071-.043-.135-.058-.192a3.445,3.445,0,0,1,.19-1.506.135.135,0,1,0-.254-.087,3.639,3.639,0,0,0-.195,1.668c.016.057.037.124.06.2.2.632.37,1.314.085,1.675a.609.609,0,0,1-.264.19.572.572,0,0,1-.471-.01,1.921,1.921,0,0,1-.793-1.07.131.131,0,0,0-.01-.024c-.058-.143-.118-.3-.177-.483a4.123,4.123,0,0,1-.164-.825,18.437,18.437,0,0,1,.113-3.649.135.135,0,1,0-.267-.036,18.816,18.816,0,0,0-.126,3.6A4.751,4.751,0,0,0,239.122,1149.563Z" transform="translate(-238.889 -1144.853)" fill="#734c37"/>
      </g>
    </g>
    <path id="패스_121" data-name="패스 121" d="M375.309,1312.33c-3.747-.105-8.469-5.377-6.334,1.943,2.159,12.475,3.962,29.915,12.678,30.787,9.285.929,27.588-7.736,28.6-16.144.12-4.49-4.493-5.535-7.7-3.165-6.388,2.857-10.66,7.278-17.557,7.97-1.579.158-3.922-2.851-4.45-4.461C378.715,1323.644,376.995,1317.991,375.309,1312.33Z" transform="translate(-310.164 -1225.898)" fill="#ffaf82"/>
    <g id="그룹_174" data-name="그룹 174" transform="translate(54.028 71.822)">
      <path id="패스_122" data-name="패스 122" d="M470.677,1295.03l-1.446-4.443s-1.92-1.056-3.273-4.626a18.8,18.8,0,0,1-1.457-4.818c-.128-1.326-.047-3.1.612-3.469a1.271,1.271,0,0,1,1.188-.072s0-1.528.572-1.863,1.612.444,1.612.444.036-1.272.868-1.519a1.03,1.03,0,0,1,1.269.545,1.127,1.127,0,0,1,.808-1.163c.862-.2,1.759,1.8,2,2.578.841,0,1.4,1.68,2.148,2.444a3.8,3.8,0,0,1,1.389,3.757c-.366,2.043-1.574,4.966-1.4,5.819s.736,4.349.736,4.349S474.887,1295.555,470.677,1295.03Z" transform="translate(-464.45 -1274.033)" fill="#ffaf82"/>
      <g id="그룹_168" data-name="그룹 168" transform="translate(7.198 5.975)">
        <path id="패스_123" data-name="패스 123" d="M477.015,1291.369s-.051.079-.128.214a9.526,9.526,0,0,0-1.086,2.926,8.341,8.341,0,0,0,.471,3.577c.116.358.207.583.209.59a.125.125,0,0,1-.069.164l0,0a.127.127,0,0,1-.161-.071c-.013-.033-.123-.307-.256-.723a8.325,8.325,0,0,1-.44-3.582,9.612,9.612,0,0,1,1.252-3.234.119.119,0,0,1,.037-.038.126.126,0,0,1,.137,0A.125.125,0,0,1,477.015,1291.369Z" transform="translate(-475.49 -1291.174)" fill="#734c37"/>
      </g>
      <g id="그룹_169" data-name="그룹 169" transform="translate(0.988 3.434)">
        <path id="패스_124" data-name="패스 124" d="M491.785,1288.039c.031.185.053.359.068.523h0a4.613,4.613,0,0,1,.018.548,1.711,1.711,0,0,1-.275.986.816.816,0,0,1-.374.282.909.909,0,0,1-.224.051.971.971,0,0,1-.231,0c-.776-.1-.976-1.182-1.087-1.787-.013-.074-.025-.14-.037-.2a3.447,3.447,0,0,0-.868-1.246.135.135,0,0,1,.185-.2,3.638,3.638,0,0,1,.946,1.388c.012.059.025.127.038.2.118.651.282,1.335.7,1.523a.606.606,0,0,0,.322.046.57.57,0,0,0,.413-.227,1.924,1.924,0,0,0,.206-1.316.1.1,0,0,1,0-.026c-.015-.153-.036-.323-.067-.51a4.128,4.128,0,0,0-.238-.807,18.431,18.431,0,0,0-1.794-3.18.135.135,0,0,1,.22-.156,18.81,18.81,0,0,1,1.783,3.13A4.777,4.777,0,0,1,491.785,1288.039Z" transform="translate(-488.735 -1283.884)" fill="#734c37"/>
      </g>
      <g id="그룹_170" data-name="그룹 170" transform="translate(3.84 2.015)">
        <path id="패스_125" data-name="패스 125" d="M485.117,1283.27c.125.343.232.643.3.858a3.982,3.982,0,0,1,.175.737,3.845,3.845,0,0,1,.039.484,1.525,1.525,0,0,1-.327,1.188,1.951,1.951,0,0,1-.39.2.988.988,0,0,1-.632.04.956.956,0,0,1-.463-.321,1.818,1.818,0,0,1-.274-.459.1.1,0,0,1-.009-.031.116.116,0,0,1,0-.026.134.134,0,0,1,.258-.051.117.117,0,0,0,.009.019h0a.992.992,0,0,0,.557.611.977.977,0,0,0,.8-.21,1.924,1.924,0,0,0,.177-1.373l0-.013a3.778,3.778,0,0,0-.168-.713c-.071-.207-.173-.494-.292-.822-.488-1.343-1.257-3.37-1.267-3.4a.133.133,0,0,1,.078-.173h0a.134.134,0,0,1,.172.078C483.87,1279.926,484.627,1281.924,485.117,1283.27Z" transform="translate(-483.539 -1279.814)" fill="#734c37"/>
      </g>
      <g id="그룹_171" data-name="그룹 171" transform="translate(6.039 1.041)">
        <path id="패스_126" data-name="패스 126" d="M481.154,1279.321a.134.134,0,0,1-.173-.079c-.359-.954-.8-2.025-.8-2.036a.135.135,0,0,1,.073-.176.132.132,0,0,1,.176.073c0,.011.447,1.085.808,2.043a.135.135,0,0,1-.078.173Z" transform="translate(-480.166 -1277.02)" fill="#734c37"/>
      </g>
      <g id="그룹_172" data-name="그룹 172" transform="translate(5.636 5.428)">
        <path id="패스_127" data-name="패스 127" d="M480.428,1289.726c0,.05.008.1.012.158.047.718.005,1.8-.628,2.077-.023.01-.045.02-.068.028a1.028,1.028,0,0,1-1.1-.263,1.528,1.528,0,0,1-.286-.374.145.145,0,0,1-.012-.036l0-.012a.134.134,0,0,1,.252-.078.115.115,0,0,0,.009.015c.064.113.469.752,1.1.474.366-.161.538-.851.464-1.854,0-.037-.005-.074-.008-.11a.135.135,0,0,1,.268-.025Z" transform="translate(-478.34 -1289.604)" fill="#734c37"/>
      </g>
      <g id="그룹_173" data-name="그룹 173" transform="translate(5.074 2.511)">
        <path id="패스_128" data-name="패스 128" d="M477.185,1281.482a8.5,8.5,0,0,1-2.715.725c-.488.048-.744.131-.83.268s-.047.35.1.748a1.263,1.263,0,0,0,.757.6,4.662,4.662,0,0,0,2.317.26.134.134,0,0,1,.11.024.132.132,0,0,1,.05.1,2.264,2.264,0,0,0,.721,1.868.129.129,0,0,1,.037.18.131.131,0,0,1-.18.038,2.17,2.17,0,0,1-.782-1.456,3.516,3.516,0,0,1-.047-.4c0-.023,0-.047,0-.071a4.065,4.065,0,0,1-.8.022c-.086-.005-.174-.013-.263-.023a4.379,4.379,0,0,1-1.512-.414,1.3,1.3,0,0,1-.645-.638c-.157-.413-.231-.737-.082-.978s.525-.341,1.026-.39a8.233,8.233,0,0,0,2.622-.7.132.132,0,0,1,.176.057A.13.13,0,0,1,477.185,1281.482Z" transform="translate(-473.338 -1281.235)" fill="#734c37"/>
      </g>
    </g>
    <path id="패스_129" data-name="패스 129" d="M278.275,1539.558c-.076,8.745,7.016,23.958,16.972,43.226.553.252,1.814.02,3.352-.452h.005c3.95-1.226,9.725-4.056,10-4.438-6.639-19.193-12.635-32.561-11.881-38.109A13.672,13.672,0,0,1,298,1535.94a39.289,39.289,0,0,1,3.05-5.231,79.208,79.208,0,0,1,5.438-7.077c1.307-1.523,2.7-3.071,4.181-4.6,0,0,.01,0,.01-.01.568-.593,1.151-1.186,1.749-1.774a.541.541,0,0,1,.055-.056c.5-.5,1.02-1.005,1.543-1.5a.238.238,0,0,0,.035-.035c2.438-2.322,5.016-4.568,7.659-6.629,0,0,5.82.443,5.82.5-.256,9.423-.508,18.394-.523,26.963q-.015,3.294.03,6.508c.266,19.776,2.156,37.381,8.679,53.513a40.314,40.314,0,0,0,6.3-.061,55.483,55.483,0,0,0,7.825-.839,223.721,223.721,0,0,1-3.945-22.4,156.9,156.9,0,0,1-.814-29.34q.174-2.617.427-5.282c.568-6.046,1.453-12.3,2.623-19.022,2.252-12.921,3.8-20.57,3.277-31.35-.432-8.875-11.861-10.2-12-10.655-1.3-4.262-4.221,8.132-14.022,5.292.03.478-7.775-5.935-18.1,7.6-6.393,8.378-15.429,20.691-21.716,31.365-1.312,2.236-2.508,4.4-3.533,6.443C279.743,1532.834,278.3,1536.8,278.275,1539.558Z" transform="translate(-219.998 -1334.193)" fill="#5183e6"/>
    <path id="패스_130" data-name="패스 130" d="M262.886,1396.079c7.126,3.674,18.037,6.006,28.631,6.322,7.488.226,14.821-.558,20.55-2.583.291-6.75.739-13.59,1.267-20.495.035-.508.075-1.016.116-1.528q.166-2.186.347-4.372.211-2.654.438-5.322c.5-5.951,1.015-11.941,1.5-17.952.08-1.02.121-2.005.121-2.965a28.736,28.736,0,0,0-1.608-9.745c-2.085-5.75-5.785-8.921-8.634-8.7a.162.162,0,0,0-.051,0c-4.583.412-14.268-.256-18.856-.618-5.413-.427-7.342,4.654-10.463,9.1-2.6,3.7-3.016,8.067-2.975,12.589a102.324,102.324,0,0,1-.955,16.158c-.332,2.207-.749,4.3-1.256,6.377-.286,1.166-.6,2.327-.94,3.5-.156.533-.317,1.065-.482,1.6C267.977,1382.786,265.741,1388.505,262.886,1396.079Z" transform="translate(-178.963 -1237.428)" fill="#ffcf00"/>
    <path id="패스_131" data-name="패스 131" d="M315.8,1308.854a15.924,15.924,0,0,1-10.018.393,10.557,10.557,0,0,0,1.287-4.6,15.006,15.006,0,0,0-.721-5.186c2.208-2.418,6.339-3.545,10.535-3.061a19.079,19.079,0,0,0-1.2,3.435A17.988,17.988,0,0,0,315.8,1308.854Z" transform="translate(-194.954 -1216.71)" fill="#ffaf82"/>
    <path id="패스_132" data-name="패스 132" d="M316.321,1296.4a19.084,19.084,0,0,0-1.2,3.435,17.618,17.618,0,0,1-8.616,4.812,15.006,15.006,0,0,0-.721-5.186C307.994,1297.044,312.125,1295.917,316.321,1296.4Z" transform="translate(-194.387 -1216.71)" fill="#de836d"/>
    <path id="패스_133" data-name="패스 133" d="M310.942,1248.507c-1.353,1.212-2.808,1.233-3.369.678-.5,1.785-1.469,3.208-4.512,5.294-3.529,2.419-10,5.573-13.671,1.9a12.674,12.674,0,0,1-2.579-4.44,18.869,18.869,0,0,1-1.35-4.92,22.219,22.219,0,0,1,.4-4.762,21.194,21.194,0,0,0,.014-4.453c-.172-1.69-.5-3.35.124-5a7.5,7.5,0,0,1,2.821-3.291,15.374,15.374,0,0,1,10.033-2.648c4.712.455,9.567,2.588,10.333,8.211a50.826,50.826,0,0,1,0,7.025,2.669,2.669,0,0,1,2.719-.107.218.218,0,0,1,.031.017C313.473,1242.973,312.711,1246.924,310.942,1248.507Z" transform="translate(-183.728 -1171.444)" fill="#ffaf82"/>
    <path id="패스_134" data-name="패스 134" d="M321.427,1260.775a5.362,5.362,0,0,0-3.793-.54.591.591,0,0,1-.754-.426.7.7,0,0,1,.372-.648,1.762,1.762,0,0,1,.792-.2,4.515,4.515,0,0,1,3.654,1.509A.209.209,0,0,1,321.427,1260.775Z" transform="translate(-203.684 -1192.384)" fill="#995d43"/>
    <path id="패스_135" data-name="패스 135" d="M347.7,1258.75a5.361,5.361,0,0,1,3.827.17.592.592,0,0,0,.82-.279.7.7,0,0,0-.246-.705,1.761,1.761,0,0,0-.74-.348,4.514,4.514,0,0,0-3.87.808A.209.209,0,0,0,347.7,1258.75Z" transform="translate(-244.946 -1191.408)" fill="#995d43"/>
    <path id="패스_136" data-name="패스 136" d="M289.356,1275.1c.7-.221,1.277.42,1.107,1.275a3.04,3.04,0,0,1-1.509,2,3.7,3.7,0,0,0,1.138-2.062c.082-.557-.284-.933-.75-.675a2.6,2.6,0,0,0-.434.336l-.624.519a6.2,6.2,0,0,1,.781-1.689,1.436,1.436,0,0,1,2.391-.207,1.225,1.225,0,0,0-1.509-.1A2.025,2.025,0,0,0,289.356,1275.1Z" transform="translate(-163.421 -1202.212)" fill="#de836d"/>
    <g id="그룹_176" data-name="그룹 176" transform="translate(103.4 69.941)">
      <g id="그룹_175" data-name="그룹 175" transform="translate(0 0)">
        <path id="패스_138" data-name="패스 138" d="M353.344,1268.8a1.4,1.4,0,1,0,.537,1.694A1.393,1.393,0,0,0,353.344,1268.8Z" transform="translate(-351.322 -1268.638)" fill="#333"/>
      </g>
    </g>
    <g id="그룹_178" data-name="그룹 178" transform="translate(113.18 70.227)">
      <g id="그룹_177" data-name="그룹 177" transform="translate(0 0)">
        <path id="패스_141" data-name="패스 141" d="M324.222,1269.526a1.388,1.388,0,1,1-.833,1.55A1.379,1.379,0,0,1,324.222,1269.526Z" transform="translate(-323.364 -1269.461)" fill="#333"/>
      </g>
    </g>
    <path id="패스_143" data-name="패스 143" d="M345.678,1277.7a3.408,3.408,0,0,1-1.687-.232,4.279,4.279,0,0,1-1.678-1.218,19.571,19.571,0,0,0,2.827-5.226,7.49,7.49,0,0,1-1.776,5.2,5.214,5.214,0,0,0,.882.76A6.064,6.064,0,0,0,345.678,1277.7Z" transform="translate(-236.477 -1200.25)" fill="#de836d"/>
    <path id="패스_144" data-name="패스 144" d="M235.554,1315.974c1.985,3.769,4.151,7.3,6.292,10.86,1.563,2.608,3.106,5.227,4.559,7.981l.287-.543c3.332-6.377,6.151-11.172,8-14.62.206-.382.4-.749.573-1.1q.573-1.108.96-1.995a30.786,30.786,0,0,0-7.207-6.835c-.754-.522-1.523-1-2.292-1.453q-.845.957-1.588,1.819c-.332.377-.654.739-.97,1.081-2.171,2.352-4.151,3.955-7.714,4.654C236.162,1315.879,235.866,1315.929,235.554,1315.974Z" transform="translate(-109.802 -1224.516)" fill="#ffcf00"/>
    <path id="패스_145" data-name="패스 145" d="M347.062,1341.834a42.4,42.4,0,0,0,2.03,9.111,16.98,16.98,0,0,0,2.126,4.2c.191-.1.965-.478,2.106-1.02l1.171-.558c1.472-.693,3.3-1.533,5.2-2.382,5.342-2.382,11.257-4.8,11.463-3.925a30.639,30.639,0,0,1,1.774-19.208,22.784,22.784,0,0,0-9.413,2.628c-1.005.513-7.418,5.131-13.343,9.1-.362.251-.724.488-1.081.724C348.4,1340.965,347.721,1341.412,347.062,1341.834Z" transform="translate(-265.385 -1237.4)" fill="#ffcf00"/>
    <path id="패스_146" data-name="패스 146" d="M339.124,1294.952a2.952,2.952,0,0,1-4.769,2.256c-1.292-.98-1.875-2.784-1.664-3.156.071-.121.241-.116.512-.066a6.642,6.642,0,0,0,2.985.136,5.852,5.852,0,0,0,2.01-.87c.331-.206.533-.332.663-.221A2.938,2.938,0,0,1,339.124,1294.952Z" transform="translate(-226.59 -1214.561)" fill="#9c3217"/>
    <path id="패스_147" data-name="패스 147" d="M335.4,1294.479a3.138,3.138,0,0,0,4.995-.732,5.952,5.952,0,0,1-2.012.87A6.644,6.644,0,0,1,335.4,1294.479Z" transform="translate(-228.784 -1215.053)" fill="#fff"/>
    <path id="패스_148" data-name="패스 148" d="M337.516,1298.616a2.952,2.952,0,0,1-4.769,2.257,15.428,15.428,0,0,1,4.427-2.166A2.619,2.619,0,0,1,337.516,1298.616Z" transform="translate(-224.982 -1218.225)" fill="#e84331"/>
    <path id="패스_149" data-name="패스 149" d="M145,1157.851a1.112,1.112,0,0,0,.469-.608,1.321,1.321,0,0,0,.048-.4c-.007-.179-.034-.359-.054-.537a5.185,5.185,0,0,0-.121-.806c-.037-.133-.076-.265-.1-.4,0,0,0-.01,0-.015a.711.711,0,0,0,.027-.075.939.939,0,0,0,.022-.149l31.98,8.435a1.508,1.508,0,1,1-.769,2.916l-31.579-8.329A.59.59,0,0,0,145,1157.851Z" transform="translate(-0.385 -1124.587)" fill="#70402c"/>
    <path id="패스_150" data-name="패스 150" d="M264.96,1069.138a1.509,1.509,0,0,1,1.842-1.073l105.746,27.883c0,.162,0,.327.007.485.019.353.106.647.115,1a1.655,1.655,0,0,0-.25.216,3.183,3.183,0,0,0-.333,1.306L266.034,1070.98A1.508,1.508,0,0,1,264.96,1069.138Z" transform="translate(-236.487 -1068.014)" fill="#70402c"/>
    <path id="패스_151" data-name="패스 151" d="M442,1160.979c.049.878,1.694-12.875,18.183-18.972,11.849-4.381,39.465-2.009,40.233-3.087,2.477-3.493,2.209-7.412,1.486-11.629-.945-5.513-2.362-10.951-2.865-16.519a15.074,15.074,0,0,1,.684-5.89c1.568-5.1,5.458-9.941,9.67-14.238,2.352-2.4,4.8-4.623,7.015-6.629-3.025-.663-6.433-1.477-10.026-2.382-.754-.191-1.523-.387-2.3-.588-10.383-2.674-21.952-6.025-30.259-8.82-2.759,1.161-5.538,2.332-8.177,3.734a36.268,36.268,0,0,0-5.463,3.483c-4.065,3.176-7.358,7.689-7.936,12.815a.848.848,0,0,0-.01.111c-.91,8.619,5.769,16.479,5.835,25.159.05,7.011-4.051,12.861-8.066,18.831a57.766,57.766,0,0,0-5.82,10.152A33.336,33.336,0,0,0,442,1160.979Z" transform="translate(-441.935 -1070.757)" fill="#ff7c52"/>
    <path id="패스_152" data-name="패스 152" d="M289.161,1220.636a3.735,3.735,0,0,0,2.352,2.629,6.166,6.166,0,0,0,3.619.141,17.876,17.876,0,0,0,3.458-1.191,4.506,4.506,0,0,0-1.337,1.774,8.512,8.512,0,0,1,7.926-2.076,2.9,2.9,0,0,0-1.327,1.347,12.883,12.883,0,0,1,6.86-1.312,12.662,12.662,0,0,1,4.262,11.7,7.594,7.594,0,0,1,1.4-1.1c.492-.3,1.015-.558,1.638-.869a22.887,22.887,0,0,0,.694-7.041,3.607,3.607,0,0,1,.578,1.367,13.972,13.972,0,0,0-4.694-10.644c.588.1,1.111.231,1.7.322a7.258,7.258,0,0,0-5.905-1.784,8.668,8.668,0,0,0-6.684-2.422,3.1,3.1,0,0,1,1.593,1.271,10.513,10.513,0,0,0-5.046-.085,21.182,21.182,0,0,0-4.779,1.739,8.158,8.158,0,0,1-2.84.995,2.443,2.443,0,0,1-2.538-1.231,15.383,15.383,0,0,0-.492,4.026,12.189,12.189,0,0,0,.357,2.819C289.724,1220.877,289.387,1220.777,289.161,1220.636Z" transform="translate(-191.563 -1161.459)" fill="#8e5931"/>
    <path id="패스_154" data-name="패스 154" d="M462.059,1099.345a407.052,407.052,0,0,1,47.483,12.514c1.568-5.1,5.458-9.941,9.669-14.238-3.242-1.186-7.222-1.9-9.328-2.638l-34.416-12.047a36.3,36.3,0,0,0-5.463,3.483c-4.065,3.176-7.357,7.689-7.936,12.816A.848.848,0,0,0,462.059,1099.345Z" transform="translate(-451.756 -1077.734)" fill="#fa0" opacity="0.39" style="mix-blend-mode: screen;isolation: isolate"/>
    <path id="패스_160" data-name="패스 160" d="M235.554,1392.2c7.488.226,14.821-.558,20.55-2.584.291-6.749.739-13.589,1.266-20.495.035-.507.075-1.015.116-1.528q.166-2.186.347-4.372.211-2.654.438-5.322c.5-5.951,1.015-11.941,1.5-17.952.08-1.021.121-2.005.121-2.965,3.332-6.378,6.151-11.172,8-14.62.206-.382.4-.749.573-1.1q.573-1.108.96-2a30.786,30.786,0,0,0-7.207-6.835,14.7,14.7,0,0,1-.106,8.865,14.537,14.537,0,0,1-3.825,5.935,13.939,13.939,0,0,1-3.237,2.307q-.219.121-.437.226a73.67,73.67,0,0,1-5.252,48.262c-2.8,5.8-6.784,11.583-12.841,13.785A9.129,9.129,0,0,0,235.554,1392.2Z" transform="translate(-122.999 -1227.23)" fill="#f70" opacity="0.47" style="mix-blend-mode: multiply;isolation: isolate"/>
    <path id="패스_161" data-name="패스 161" d="M345.851,1566.417c2.438-2.322,5.016-4.568,7.659-6.629,0,0,5.82.442,5.82.5l.422-2.95s-8.209-.064-11.659-2.75a34.434,34.434,0,0,0,3.341,3.528l-3.494-.93C348.217,1557.274,352.963,1559.145,345.851,1566.417Z" transform="translate(-251.786 -1384.959)" fill="#5183e6" opacity="0.44" style="mix-blend-mode: multiply;isolation: isolate"/>
    <path id="패스_162" data-name="패스 162" d="M390.411,1594.868c.568-.593,1.151-1.186,1.749-1.774A22.236,22.236,0,0,0,390.411,1594.868Z" transform="translate(-299.728 -1410.043)" fill="#5183e6" opacity="0.44" style="mix-blend-mode: multiply;isolation: isolate"/>
    <path id="패스_163" data-name="패스 163" d="M283.069,1776.847a55.488,55.488,0,0,0,7.825-.839,223.7,223.7,0,0,1-3.945-22.4q.324,5.94.648,11.875a22.3,22.3,0,0,1-.186,5.76,7.535,7.535,0,0,1-2.945,4.8C284.019,1776.339,283.531,1776.57,283.069,1776.847Z" transform="translate(-161.041 -1514.596)" fill="#5183e6" opacity="0.44" style="mix-blend-mode: multiply;isolation: isolate"/>
    <path id="패스_166" data-name="패스 166" d="M408.746,1652.457a22.907,22.907,0,0,1-3.724,17.661c3.95-1.226,9.725-4.056,10-4.438-6.639-19.193-12.635-32.562-11.881-38.11.493-3.613,4.272-9.72,9.77-16.152a22.986,22.986,0,0,0-5.81,5.3c-2.729,3.3-5.1,7.112-5.6,11.368s.909,8.489,2.618,12.413S407.872,1648.265,408.746,1652.457Z" transform="translate(-326.416 -1421.979)" fill="#5183e6" opacity="0.44" style="mix-blend-mode: multiply;isolation: isolate"/>
    <path id="패스_167" data-name="패스 167" d="M380.1,1378.695a16.984,16.984,0,0,0,2.126,4.2c.191-.1.965-.477,2.106-1.02l1.171-.558c1.472-.693,3.3-1.532,5.2-2.382a21.664,21.664,0,0,1,1.719-8.282C388.894,1376.191,385.788,1382.513,380.1,1378.695Z" transform="translate(-296.397 -1265.149)" fill="#ff9b00" opacity="0.47" style="mix-blend-mode: multiply;isolation: isolate"/>
  </g>
</svg>
